<?xml version="1.0" encoding="UTF-8" standalone="no"?>
<svg
   xmlns:dc="http://purl.org/dc/elements/1.1/"
   xmlns:cc="http://creativecommons.org/ns#"
   xmlns:rdf="http://www.w3.org/1999/02/22-rdf-syntax-ns#"
   xmlns:svg="http://www.w3.org/2000/svg"
   xmlns="http://www.w3.org/2000/svg"
   xmlns:xlink="http://www.w3.org/1999/xlink"
   xmlns:sodipodi="http://sodipodi.sourceforge.net/DTD/sodipodi-0.dtd"
   xmlns:inkscape="http://www.inkscape.org/namespaces/inkscape"
   width="128mm"
   height="128mm"
   viewBox="0 0 128 128"
   version="1.1"
   id="svg2355"
   inkscape:version="1.0.1 (3bc2e813f5, 2020-09-07)"
   sodipodi:docname="01_EthToBsc.svg">
  <defs
     id="defs2349">
    <linearGradient
       inkscape:collect="always"
       id="linearGradient957">
      <stop
         style="stop-color:#ffffff;stop-opacity:1;"
         offset="0"
         id="stop953" />
      <stop
         style="stop-color:#ffffff;stop-opacity:0;"
         offset="1"
         id="stop955" />
    </linearGradient>
    <radialGradient
       inkscape:collect="always"
       xlink:href="#linearGradient957"
       id="radialGradient2179"
       gradientUnits="userSpaceOnUse"
       gradientTransform="matrix(0.09584376,-0.09865584,0.66161815,0.64275953,-112.59706,124.50854)"
       cx="253.12183"
       cy="-94.574562"
       fx="253.12183"
       fy="-94.574562"
       r="77.981499" />
    <rect
       x="31.460493"
       y="137.55051"
       width="61.281033"
       height="18.942507"
       id="rect1013-0-2-6-0" />
    <rect
       x="31.460493"
       y="137.55051"
       width="61.281033"
       height="18.942507"
       id="rect2208" />
    <rect
       x="31.460493"
       y="137.55051"
       width="61.281033"
       height="18.942507"
       id="rect1013-0-2-6-0-3" />
    <rect
       x="31.460493"
       y="137.55051"
       width="61.281033"
       height="18.942507"
       id="rect2232" />
  </defs>
  <sodipodi:namedview
     id="base"
     pagecolor="#ffffff"
     bordercolor="#666666"
     borderopacity="1.0"
     inkscape:pageopacity="0.0"
     inkscape:pageshadow="2"
     inkscape:zoom="0.14246544"
     inkscape:cx="-233.66644"
     inkscape:cy="268.19717"
     inkscape:document-units="mm"
     inkscape:current-layer="layer1"
     inkscape:document-rotation="0"
     showgrid="false"
     fit-margin-top="0"
     fit-margin-left="0"
     fit-margin-right="0"
     fit-margin-bottom="0"
     inkscape:window-width="1920"
     inkscape:window-height="1016"
     inkscape:window-x="0"
     inkscape:window-y="27"
     inkscape:window-maximized="1"
     inkscape:snap-global="false" />
  <metadata
     id="metadata2352">
    <rdf:RDF>
      <cc:Work
         rdf:about="">
        <dc:format>image/svg+xml</dc:format>
        <dc:type
           rdf:resource="http://purl.org/dc/dcmitype/StillImage" />
        <dc:title></dc:title>
      </cc:Work>
    </rdf:RDF>
  </metadata>
  <g
     inkscape:label="Capa 1"
     inkscape:groupmode="layer"
     id="layer1"
     transform="translate(270.39587,-10.321989)"
     style="display:inline">
    <rect
       style="fill:#ffddff;fill-opacity:1;stroke:none;stroke-width:5.71974;stroke-miterlimit:4;stroke-dasharray:none;stroke-opacity:1"
       id="rect877"
       width="114.48599"
       height="100.21501"
       x="-262.60046"
       y="23.62752"
       rx="16.583775"
       ry="16.583775" />
    <g
       id="g1215"
       transform="matrix(0.6490642,0,0,0.6490642,-80.191388,-55.929151)">
      <path
         id="path1099"
         style="fill:#850085;fill-opacity:1;stroke-width:0.264583"
         d="m -202.72203,140.97196 c -8.53385,0.003 -17.00883,1.85747 -25.0734,5.55367 -3.04902,1.39745 -4.77789,2.36924 -8.22379,4.64209 9.68582,11.3255 13.66527,12.06349 25.95087,9.40718 4.59442,-0.9684 15.72756,-0.47099 17.75189,0.79323 0.93272,0.58249 0.63483,1.69527 -0.95084,3.55276 -0.80037,0.93756 -1.45521,1.86052 -1.45521,2.05103 0,0.19053 0.20836,0.58917 0.46302,0.88626 0.37332,0.43552 2.10324,0.88134 8.92968,2.30063 4.65667,0.96818 9.53823,1.98342 10.84792,2.25568 1.30969,0.27226 4.40531,0.92481 6.87917,1.45056 1.08744,0.2311 1.95525,0.41437 2.73213,0.57619 l 3.60288,-5.97845 c -0.45178,-1.43325 -0.96179,-3.02632 -1.55184,-4.81521 -1.65141,-5.00668 -3.83588,-11.66373 -4.85449,-14.79341 -2.54905,-7.83189 -2.4734,-7.67085 -3.60598,-7.67085 -0.50952,0 -1.02154,0.16123 -1.13791,0.35863 -0.11637,0.19739 -0.82903,1.0606 -1.58337,1.91823 -0.75434,0.85763 -1.58777,1.80571 -1.85208,2.10685 -0.84386,0.96146 -1.2958,0.93339 -4.38216,-0.27337 -7.38058,-2.88578 -14.95661,-4.32447 -22.48649,-4.3217 z m 25.07909,83.29052 c -0.34513,0 -1.87684,1.41379 -3.18895,2.94401 -1.13054,1.31848 -4.54443,5.14612 -5.98413,6.70915 -0.67208,0.72966 -1.62392,1.8033 -2.11512,2.38539 -0.49119,0.58208 -1.43962,1.65364 -2.10788,2.38125 -1.76929,1.92641 -4.06828,4.47668 -6.32933,7.02231 -1.0914,1.22877 -2.37132,2.63992 -2.84427,3.13624 -0.47294,0.49632 -0.85989,1.11774 -0.85989,1.38079 0,0.78573 0.96381,1.4453 2.57968,1.76527 0.83691,0.16573 2.65245,0.5476 4.0349,0.84904 1.38245,0.30143 3.94229,0.83808 5.68854,1.19218 1.74625,0.35409 4.84188,0.99971 6.87917,1.43505 12.01997,2.56846 14.68646,3.05843 15.12776,2.78019 1.0022,-0.63183 1.00326,-1.02128 0.0134,-3.98786 -0.89719,-2.68899 -1.09148,-3.49628 -1.01648,-4.2292 0.0168,-0.16372 1.01276,-1.05511 2.2133,-1.98076 1.57118,-1.21142 5.30446,-4.73249 7.61298,-7.11223 l -11.32024,-15.95251 c -0.9122,1.23912 -1.89471,2.43471 -2.95693,3.58117 -1.58932,1.71537 -2.56478,1.2854 -3.45199,-1.52135 -0.55972,-1.77077 -1.27574,-2.77813 -1.97455,-2.77813 z m -79.62821,0.44804 c 2.19382,5.15014 5.05105,9.9492 8.44651,14.10405 1.97336,2.41469 6.02668,6.52284 8.06463,8.17366 0.94588,0.7662 1.95296,1.58236 2.23759,1.81332 1.86113,1.51026 6.85213,4.59187 9.53637,5.88802 4.48388,2.16515 5.92569,2.74567 9.48572,3.82147 9.22689,2.78824 18.97792,3.26913 28.95534,1.42782 3.28832,-0.60686 4.36922,-1.16336 3.86591,-1.99161 -0.28574,-0.47021 -5.01562,-1.64311 -11.61531,-2.88045 -3.74078,-0.70133 -5.25217,-1.76205 -5.60431,-3.93206 -0.32604,-2.00913 -0.0116,-2.62887 3.30316,-6.50657 1.30742,-1.52948 1.37371,-1.67285 0.9772,-2.11099 -0.35485,-0.39208 -0.89451,-0.47292 -3.25458,-0.48782 -7.37731,-0.0466 -14.47959,-2.18293 -20.60753,-5.90197 -5.11538,5.45447 -9.4811,9.94405 -10.14822,10.22574 -3.53181,-3.85648 -15.81314,-14.44534 -23.64248,-21.64261 z m 79.63648,0.1018 c 0.30823,0.0127 0.37075,0.0752 0.15968,0.15968 -0.19099,0.0764 -0.41904,0.0672 -0.50694,-0.0207 -0.0879,-0.0879 0.0684,-0.15051 0.34726,-0.13901 z m 0.81494,0.60307 c 0.0541,0.003 0.1,0.0814 0.15916,0.23564 0.0821,0.21389 -0.0154,0.37517 -0.22737,0.37517 -0.20441,0 -0.36994,-0.0101 -0.36794,-0.0222 0.002,-0.0121 0.10485,-0.18054 0.22789,-0.37465 0.0921,-0.14524 0.15417,-0.21718 0.20826,-0.21394 z m -76.01087,6.78459 c 0.0549,0 0.26331,0.20835 0.46303,0.46302 0.32911,0.41965 0.3194,0.42885 -0.10026,0.0997 -0.44072,-0.34564 -0.58053,-0.56276 -0.36277,-0.56276 z m 11.01225,12.96459 c 0.14552,0 0.26459,0.12598 0.26459,0.28008 0,0.15407 -0.11907,0.20669 -0.26459,0.11679 -0.14552,-0.0899 -0.26458,-0.2164 -0.26458,-0.2806 0,-0.0642 0.11906,-0.11627 0.26458,-0.11627 z m 76.2,2.11666 c 0.0137,0.0137 -0.0659,0.12091 -0.23048,0.33073 -0.19971,0.25466 -0.40812,0.46302 -0.46302,0.46302 -0.21776,0 -0.078,-0.21763 0.36277,-0.56327 0.20983,-0.16455 0.31708,-0.24413 0.33073,-0.23048 z m -33.45015,1.16324 c 0.0706,-0.0108 0.11265,0.0213 0.11265,0.0987 0,0.14777 -0.17859,0.33736 -0.39687,0.42117 -0.21828,0.0837 -0.39688,0.11085 -0.39688,0.0605 0,-0.0504 0.1786,-0.23949 0.39688,-0.42065 0.11437,-0.0949 0.21359,-0.14888 0.28422,-0.15968 z"
         sodipodi:nodetypes="ssccsssssssccscsssssssssssssssssccscsccssscsssssssssssccccccccssscsssssssssssssssssscsss" />
      <g
         id="g1054"
         transform="matrix(0.22265214,0,0,0.22265214,-172.74002,156.75074)">
        <polygon
           fill="#343434"
           points="127.9611,287.958 255.9231,212.32 127.9611,0 125.1661,9.5 125.1661,285.168 "
           id="polygon1042"
           style="fill:#4d004d;fill-opacity:1"
           transform="translate(0,-13.194018)" />
        <polygon
           fill="#8c8c8c"
           points="127.962,154.158 127.962,0 0,212.32 127.962,287.959 "
           id="polygon1044"
           style="fill:#c200c2;fill-opacity:1"
           transform="translate(0,-13.194018)" />
        <polygon
           fill="#3c3c3b"
           points="127.9611,416.9066 255.9991,236.5866 127.9611,312.1866 126.3861,314.1066 126.3861,412.3056 "
           id="polygon1046"
           style="fill:#4d004d;fill-opacity:1"
           transform="translate(0,-13.194018)" />
        <polygon
           fill="#8c8c8c"
           points="127.962,312.1852 0,236.5852 127.962,416.9052 "
           id="polygon1048"
           style="fill:#c200c2;fill-opacity:1"
           transform="translate(0,-13.194018)" />
        <polygon
           fill="#141414"
           points="255.9211,212.3207 127.9611,154.1587 127.9611,287.9577 "
           id="polygon1050"
           style="fill:#850085;fill-opacity:1"
           transform="translate(0,-13.194018)" />
        <polygon
           fill="#393939"
           points="127.9609,287.9578 127.9609,154.1588 0.0009,212.3208 "
           id="polygon1052"
           style="fill:#850085;fill-opacity:1"
           transform="translate(0,-13.194018)" />
      </g>
      <path
         class="fil1"
         d="m -257.81767,213.89765 c 1.65428,2.63921 19.84904,17.92649 23.84071,22.2851 1.3477,-0.56904 21.79349,-22.85838 22.46928,-24.17337 -1.29326,-2.29804 -6.46078,-5.75189 -8.40442,-8.15962 -2.63992,1.42145 -12.26405,14.10375 -14.76002,15.17657 -1.49873,-1.62617 -14.07388,-13.36374 -15.41108,-13.93757 -1.7492,2.57589 -6.62402,6.40845 -7.73447,8.80889 z"
         id="path1909-3"
         style="clip-rule:evenodd;fill:#850085;fill-opacity:1;fill-rule:evenodd;stroke:#850085;stroke-width:3.51561;stroke-miterlimit:4;stroke-dasharray:none;stroke-opacity:1;image-rendering:optimizeQuality;shape-rendering:geometricPrecision;text-rendering:geometricPrecision" />
      <path
         class="fil1"
         d="m -259.46042,184.00758 c 0,0 6.90726,6.30396 8.87569,8.78099 2.52697,-2.89645 12.86386,-13.4032 14.22521,-15.14599 1.93244,1.92625 11.51538,10.26996 15.94661,13.92453 1.73732,-2.54464 5.58481,-6.46105 7.7122,-8.81675 -3.04432,-2.65183 -20.05941,-18.12884 -23.82353,-22.29461 -8.20943,7.7504 -16.66256,17.74189 -22.93618,23.55183 z"
         id="path1911-6"
         style="clip-rule:evenodd;fill:#850085;fill-opacity:1;fill-rule:evenodd;stroke:#850085;stroke-width:3.51561;stroke-miterlimit:4;stroke-dasharray:none;stroke-opacity:1;image-rendering:optimizeQuality;shape-rendering:geometricPrecision;text-rendering:geometricPrecision"
         sodipodi:nodetypes="ccccccc" />
      <path
         class="fil1"
         d="m -243.89316,198.38167 c 0.54325,1.36194 7.87128,8.12422 9.28136,8.54566 1.64884,-2.128 7.32762,-7.14895 7.96242,-9.25318 l -8.69446,-7.94567 c -2.04644,0.78208 -6.51877,6.83476 -8.54932,8.65319 z"
         id="path1913-7"
         style="clip-rule:evenodd;fill:#850085;fill-opacity:1;fill-rule:evenodd;stroke:#850085;stroke-width:3.51561;stroke-miterlimit:4;stroke-dasharray:none;stroke-opacity:1;image-rendering:optimizeQuality;shape-rendering:geometricPrecision;text-rendering:geometricPrecision" />
      <path
         class="fil1"
         d="m -214.25125,197.63439 8.70798,7.9539 c 1.47065,-1.1101 7.699,-7.7397 8.13208,-9.07994 l -8.67021,-7.88956 c -1.06009,0.83415 -7.71619,7.96451 -8.16985,9.0156 z"
         id="path1915-5"
         style="clip-rule:evenodd;fill:#850085;fill-opacity:1;fill-rule:evenodd;stroke:#850085;stroke-width:3.51561;stroke-miterlimit:4;stroke-dasharray:none;stroke-opacity:1;image-rendering:optimizeQuality;shape-rendering:geometricPrecision;text-rendering:geometricPrecision" />
      <path
         class="fil1"
         d="m -273.09777,199.61638 c 0.52653,1.27476 7.27831,7.37508 8.75317,8.30798 0.95929,-0.72018 7.63662,-7.86899 8.08167,-8.9153 l -8.70832,-7.96269 z"
         id="path1917-3"
         style="clip-rule:evenodd;fill:#850085;fill-opacity:1;fill-rule:evenodd;stroke:#850085;stroke-width:3.51561;stroke-miterlimit:4;stroke-dasharray:none;stroke-opacity:1;image-rendering:optimizeQuality;shape-rendering:geometricPrecision;text-rendering:geometricPrecision" />
    </g>
    <path
       style="fill:#bebebe;fill-opacity:0.260585;stroke:none;stroke-width:0.19422px;stroke-linecap:butt;stroke-linejoin:miter;stroke-opacity:1"
       d="m -259.18181,32.081319 c 0,0 51.5893,-1.029945 71.45097,19.430601 19.86166,20.460546 17.2697,72.15499 17.2697,72.15499 l 14.72198,-0.93412 7.44803,-9.9131 -0.50691,-78.605999 -6.19191,-9.825944 -63.9351,-1.917419 -32.54292,2.578059 z"
       id="path897" />
    <rect
       style="fill:none;fill-opacity:1;stroke:#850085;stroke-width:5.71974;stroke-miterlimit:4;stroke-dasharray:none;stroke-opacity:1"
       id="rect877-3"
       width="114.48599"
       height="100.21501"
       x="-262.60046"
       y="23.62752"
       rx="16.583775"
       ry="16.583775" />
    <rect
       style="fill:url(#radialGradient2179);fill-opacity:1;stroke:none;stroke-width:5.71974;stroke-miterlimit:4;stroke-dasharray:none;stroke-opacity:1"
       id="rect877-7"
       width="114.48599"
       height="100.21501"
       x="-262.60046"
       y="23.62752"
       rx="16.583775"
       ry="16.583775" />
    <rect
       style="fill:none;fill-opacity:1;stroke:#850085;stroke-width:5.71974;stroke-miterlimit:4;stroke-dasharray:none;stroke-opacity:1"
       id="rect877-3-6"
       width="114.48599"
       height="100.21501"
       x="-262.60046"
       y="23.62752"
       rx="16.583775"
       ry="16.583775" />
  </g>
  <g
     inkscape:groupmode="layer"
     id="layer3"
     inkscape:label="links"
     style="display:inline" />
</svg>
