<?xml version="1.0" encoding="UTF-8"?>
<svg width="128mm" height="128mm" version="1.1" viewBox="0 0 128 128" xmlns="http://www.w3.org/2000/svg" xmlns:cc="http://creativecommons.org/ns#" xmlns:dc="http://purl.org/dc/elements/1.1/" xmlns:rdf="http://www.w3.org/1999/02/22-rdf-syntax-ns#" xmlns:xlink="http://www.w3.org/1999/xlink">
 <defs>
  <radialGradient id="radialGradient959-5-8-5" cx="253.12" cy="-94.575" r="77.981" gradientTransform="matrix(.099304 -.10222 .68551 .66597 -109.72 127.21)" gradientUnits="userSpaceOnUse">
   <stop stop-color="#fff" offset="0"/>
   <stop stop-color="#fff" stop-opacity="0" offset="1"/>
  </radialGradient>
  <filter id="filter1219-12" x="-.0068182" y="-.02375" width="1.0136" height="1.0475" color-interpolation-filters="sRGB">
   <feGaussianBlur stdDeviation="0.76903152"/>
  </filter>
  <filter id="filter1219-1-0" x="-.0068182" y="-.02375" width="1.0136" height="1.0475" color-interpolation-filters="sRGB">
   <feGaussianBlur stdDeviation="0.76903152"/>
  </filter>
  <filter id="filter1219-1-2-3" x="-.0068182" y="-.02375" width="1.0136" height="1.0475" color-interpolation-filters="sRGB">
   <feGaussianBlur stdDeviation="0.76903152"/>
  </filter>
  <linearGradient id="linearGradient1409" x1="43.399" x2="24.003" y1="6.3542" y2="17.19" gradientTransform="matrix(1.6455 0 0 1.6455 116.13 19.929)" gradientUnits="userSpaceOnUse">
   <stop stop-color="#fff" stop-opacity=".50089" offset="0"/>
   <stop stop-color="#f9f6fb" stop-opacity=".54118" offset=".11117"/>
   <stop stop-color="#f8f4fa" stop-opacity=".87076" offset=".14399"/>
   <stop stop-color="#f6f1f9" stop-opacity=".56471" offset=".17456"/>
   <stop stop-color="#f0e6f5" stop-opacity=".63164" offset=".34017"/>
   <stop stop-color="#d3b6e4" stop-opacity="0" offset="1"/>
  </linearGradient>
 </defs>
 <metadata>
  <rdf:RDF>
   <cc:Work rdf:about="">
    <dc:format>image/svg+xml</dc:format>
    <dc:type rdf:resource="http://purl.org/dc/dcmitype/StillImage"/>
    <dc:title/>
   </cc:Work>
  </rdf:RDF>
 </metadata>
 <g transform="translate(270.4 -10.322)">
  <rect x="-265.14" y="22.686" width="118.62" height="103.83" rx="17.183" ry="17.183" fill="#fdf"/>
  <g transform="matrix(.80889 0 0 .80889 -342.75 10.398)">
   <g>
    <rect x="133.89" y="36.971" width="71.929" height="91.441" fill="#f6f9e4" stroke="#d3b6e4" stroke-linecap="round" stroke-linejoin="round" stroke-width="2.4946"/>
    <rect x="146.94" y="52.209" width="45.71" height="75.182" ry="1.3951" fill="#e9e0ee" stroke="#c793e6" stroke-linecap="round" stroke-linejoin="round" stroke-width="1.044"/>
    <rect x="150.03" y="54.476" width="43.088" height="74.688" ry="1.3951" fill="#dfd2e6"/>
   </g>
   <rect x="146.94" y="52.209" width="45.71" height="75.182" ry="1.3951" fill="none" stroke="#c793e6" stroke-linecap="round" stroke-linejoin="round" stroke-width="1.044"/>
   <g>
    <rect x="133.76" y="23.312" width="72.184" height="14.983" fill="#e9e0ee" stroke="#d3b6e4" stroke-linecap="round" stroke-linejoin="round" stroke-width="2.4424"/>
    <rect x="118.13" y="123.91" width="101.55" height="9.1327" fill="#d3a3ff"/>
    <g stroke-linecap="round" stroke-linejoin="round">
     <rect transform="scale(1,-1)" x="116.67" y="-124.41" width="104.26" height="1.786" rx=".14505" ry=".32097" fill="#c98bff" stroke="#ab74cc" stroke-width=".3999"/>
     <ellipse cx="170.15" cy="47.325" rx="28.648" ry="27.361" fill="#fdfcfe" stroke-width="5.6668"/>
     <circle cx="170.15" cy="48.449" r="27.118" fill="#b484d0" stroke-width="5.4888"/>
     <ellipse cx="170.15" cy="48.71" rx="27.118" ry="24.24" fill="#d3b6e4" stroke-width="5.1894"/>
    </g>
    <path d="m166.48 75.006h6.9752l-2.0933 3.9183h-2.7885z" fill="#9651bf"/>
    <path d="m167.98 75.006h1.9986l-0.0541 3.9183h-0.65918z" fill="#fff" opacity=".62251"/>
    <rect x="160.16" y="69.35" width="19.227" height="5.5745" fill="#dfd2e6" stroke="#b484d0" stroke-linecap="round" stroke-linejoin="round" stroke-width=".44593"/>
    <rect x="168.16" y="78.864" width="3.5159" height="1.4519" rx=".23948" ry=".23948" fill="#f1e8f7" stroke="#9651bf" stroke-linecap="round" stroke-linejoin="round" stroke-width=".17231"/>
   </g>
   <g transform="matrix(.7808 0 0 .7808 160.21 88.101)">
    <g transform="matrix(.078698 .00029314 -.0068769 .078118 25.99 7.8096)" fill="#fefefe" filter="url(#filter1219-12)" stroke-width="2.4743" aria-label="Ice Cream">
     <path d="m-118.8-227.31q0-4.115 0.68583-10.091 0.7838-5.9765 1.9595-12.541 1.2737-6.5644 2.7433-13.031 1.5676-6.4664 3.1352-11.561 1.5676-5.1927 2.9393-8.4259 1.4696-3.2332 2.5474-3.2332 0.68583 0 2.1555 0.48987 1.4696 0.39191 2.8413 0.97976 1.3717 0.58785 2.4494 1.2737 1.0777 0.68583 1.0777 1.2737 0 0.29393-0.19595 0.48988-0.3919 0.48987-0.68583 0.88178-0.29393 0.29392-0.48988 0.7838-1.4696 2.6453-3.0372 7.1522-1.5676 4.4089-3.0372 9.8955-1.4696 5.3886-2.8413 11.267-1.3716 5.8785-2.4494 11.267-0.97976 5.2907-1.5676 9.6016t-0.58785 6.6623q0 1.1757-1.1757 1.1757-0.88178 0-2.0575-0.3919-1.0777-0.3919-2.0575-0.97975-0.97976-0.58786-1.6656-1.3717-0.68583-0.7838-0.68583-1.5676z"/>
     <path d="m-91.27-223q-5.8785 0-8.9158-2.9393-2.9393-2.9393-3.6251-7.2502-0.68583-4.4089 0.48988-9.5036 1.1757-5.1927 3.5271-9.5036 2.4494-4.4089 5.5846-7.3482 3.2332-2.9393 6.5644-2.9393 1.7636 0 3.4291 0.7838 1.6656 0.68583 2.9393 1.8615 1.3717 1.1757 2.1555 2.7433 0.88178 1.4696 0.88178 3.0372 0 1.9595-0.48988 4.017-0.48988 1.9595-1.2737 3.5271-0.68583 1.5676-1.5676 2.5474-0.88178 0.97975-1.7636 0.97975-1.0777 0-2.7433-0.97975-1.6656-0.97976-2.6453-2.0575-0.48988-0.58785-0.29393-1.1757 0.29393-0.68583 1.0777-1.1757 1.4696-0.88178 2.6453-2.3514 1.2737-1.5676 1.8615-3.2332 0.7838-1.9595 0.48988-2.9393-0.29393-0.97975-1.2737-0.97975-2.0575 0-4.115 2.2534-2.0575 2.2534-3.7231 5.5846-1.5676 3.3312-2.5474 7.3482-0.97975 3.919-0.88178 7.2502 0.09798 3.3312 1.3717 5.5846 1.3717 2.2534 4.4089 2.2534 3.2332 0 5.9765-2.6453 2.8413-2.6453 5.0947-6.4664 2.3514-3.919 4.115-8.2299 1.8615-4.3109 3.2332-7.6421 0.29393-0.58785 0.7838-0.68583 0.48988-0.19595 0.88178 0 0.48988 0.19595 0.7838 0.68583 0.29393 0.48988 0 1.0777-1.3717 3.4291-3.4291 8.3279-2.0575 4.8988-4.8008 9.4056t-6.2704 7.6421q-3.5271 3.1352-7.936 3.1352z"/>
     <path d="m-64.915-223q-4.4089 0-7.2502-1.6656-2.7433-1.7636-4.115-4.5069t-1.5676-6.2704q-0.19595-3.6251 0.58785-7.2502 0.88178-3.7231 2.4494-7.2502 1.5676-3.6251 3.7231-6.3684 2.1555-2.7433 4.6048-4.4089 2.5474-1.7636 5.1927-1.7636 1.3717 0 3.1352 0.88177 1.8615 0.78381 3.4291 2.1555 1.5676 1.3717 2.6453 3.0372 1.0777 1.6656 1.0777 3.2332 0 3.4291-1.7636 6.3684-1.7636 2.9393-4.5069 5.1927-2.7433 2.1555-5.9765 3.4291-3.1352 1.1757-5.9765 1.1757-0.19595 3.919 1.0777 6.6623 1.3717 2.7433 4.8008 2.7433 2.9393 0 5.6826-2.6453 2.8413-2.6453 5.1927-6.4664 2.4494-3.919 4.3109-8.2299 1.9595-4.3109 3.2332-7.6421 0.19595-0.58785 0.68583-0.68583 0.58785-0.19595 0.97975 0 0.48988 0.19595 0.7838 0.68583t0 1.0777q-1.3717 3.6251-3.5271 8.5239-2.0575 4.8988-4.8988 9.4056-2.8413 4.4089-6.3684 7.5441-3.5271 3.0372-7.6421 3.0372zm3.919-33.606q-1.4696 1.0777-2.8413 3.0372-1.2737 1.8615-2.3514 4.2129-1.0777 2.3514-1.8615 4.9967-0.68583 2.6453-0.97975 5.0947 1.9595 0 3.919-1.3717 2.0575-1.3717 3.6251-3.5271 1.6656-2.2534 2.6453-5.0947 0.97975-2.8413 0.97975-5.7805 0-1.5676-1.0777-1.9595-0.97975-0.48988-2.0575 0.3919z"/>
     <path d="m-3.6802-286.39q4.115 0 7.1522 1.6656 3.1352 1.5676 4.3109 4.7028 1.0777 0.88178 1.6656 2.1555 0.68583 1.1757 0.68583 2.2534 0 2.6453-1.5676 5.4866-1.5676 2.8413-3.4291 5.6826-1.8615 2.8413-3.4291 5.6826-1.5676 2.8413-1.5676 5.4866 0 0.68583-0.48988 0.68583-0.88178 0-2.0575-0.3919-1.0777-0.48988-2.0575-1.2737-0.88178-0.7838-1.5676-1.7636-0.68583-1.0777-0.68583-2.2534 0-2.6453 1.5676-4.8988 1.5676-2.3514 3.3312-4.5069 1.8615-2.1555 3.4291-4.2129 1.5676-2.1555 1.5676-4.4089 0-1.6656-0.88178-3.1352-0.7838-1.4696-2.9393-1.4696-4.8008 0-9.2097 3.919-4.3109 3.919-7.7401 9.7975-3.3312 5.8785-5.3886 12.737-1.9595 6.8583-2.0575 12.737 0 5.8785 2.3514 9.7975 2.3514 3.919 7.6421 3.919 1.8615 0 3.919-0.48988 2.1555-0.58785 3.7231-1.6656 0.48988-0.3919 0.7838 0.29392 0.29393 0.39191-0.097975 1.4696-1.0777 3.1352-3.919 4.4089-2.8413 1.1757-5.8785 1.1757-6.2704 0-10.287-2.7433-3.919-2.7433-5.8785-7.1522-1.9595-4.5069-2.1555-10.189-0.19595-5.7806 1.1757-11.659 1.4696-5.9765 4.2129-11.659 2.7433-5.7806 6.6623-10.189 3.919-4.5069 8.7198-7.2502 4.8988-2.7433 10.385-2.7433z"/>
     <path d="m1.3162-227.71q0.29393-3.821 1.0777-8.132 0.7838-4.4089 1.8615-8.7198 1.0777-4.4089 2.3514-8.5239 1.3717-4.2129 2.9393-7.74 0.48988-1.2737 1.3717-1.2737 0.68583 0 1.5676 0.29392 0.97975 0.29393 1.8615 0.78381 0.97975 0.3919 1.6656 0.88178 0.7838 0.48987 1.2737 0.88177 0.7838 0.58786 0.29393 1.4696-0.48988 0.78381-0.7838 1.5676-1.3717 3.5271-2.6453 7.5441-1.1757 4.017-2.1555 8.034 1.2737-2.8413 2.8413-5.8785 1.6656-3.0372 3.4291-5.8785 1.7636-2.8413 3.5271-5.1927 1.8615-2.3514 3.6251-3.821 0.68583-0.68582 1.8615-0.68582 0.3919 0 1.1757 0.19595t1.6656 0.58785q0.97975 0.29393 1.7636 0.7838 0.88178 0.39191 1.4696 0.97976 0.97975 0.97975 0.58785 1.7636-0.3919 0.68583-1.1757 1.2737-2.5474 2.1555-3.821 5.3886-1.1757 3.2332-1.3717 5.7806-0.09797 1.8615 0.48988 2.7433 0.58785 0.78381 1.3717 0.78381 1.5676 0 3.0372-1.2737 1.4696-1.2737 2.7433-3.0372 1.2737-1.7636 2.3514-3.6251 1.0777-1.8615 1.7636-3.0372 0.3919-0.58785 0.88178-0.58785 0.58785-0.098 0.97975 0.19595 0.48988 0.29392 0.58785 0.7838 0.19595 0.48988-0.09798 1.0777-0.7838 1.3717-1.9595 3.3312-1.1757 1.8615-2.6453 3.821-1.3717 1.8615-3.0372 3.5271-1.5676 1.5676-3.3312 2.1555-1.2737 0.48988-2.9393 0.19595-1.5676-0.29393-3.1352-1.0777-1.4696-0.88178-2.6453-2.1555-1.0777-1.3716-1.2737-3.0372-0.19595-2.2534 0.68583-5.1927 0.88178-3.0372 1.9595-5.2907 0.29393-0.68583 0.09797-0.58786-0.09797 0-0.3919 0.39191-2.3514 2.8413-4.8988 7.2502-2.4494 4.3109-4.5069 8.8178-2.0575 4.5069-3.4291 8.6218-1.3717 4.115-1.5676 6.4664 0 0.78381-0.3919 0.97976-0.29393 0.098-0.7838 0.098-0.88178 0-1.9595-0.3919-1.0777-0.48988-2.0575-1.1757-0.88178-0.68583-1.5676-1.4696-0.58785-0.88178-0.58785-1.6656z"/>
     <path d="m46.189-223q-4.4089 0-7.2502-1.6656-2.7433-1.7636-4.115-4.5069-1.3717-2.7433-1.5676-6.2704-0.19595-3.6251 0.58785-7.2502 0.88178-3.7231 2.4494-7.2502 1.5676-3.6251 3.7231-6.3684 2.1555-2.7433 4.6048-4.4089 2.5474-1.7636 5.1927-1.7636 1.3717 0 3.1352 0.88177 1.8615 0.78381 3.4291 2.1555 1.5676 1.3717 2.6453 3.0372 1.0777 1.6656 1.0777 3.2332 0 3.4291-1.7636 6.3684-1.7636 2.9393-4.5069 5.1927-2.7433 2.1555-5.9765 3.4291-3.1352 1.1757-5.9765 1.1757-0.19595 3.919 1.0777 6.6623 1.3717 2.7433 4.8008 2.7433 2.9393 0 5.6826-2.6453 2.8413-2.6453 5.1927-6.4664 2.4494-3.919 4.3109-8.2299 1.9595-4.3109 3.2332-7.6421 0.19595-0.58785 0.68583-0.68583 0.58785-0.19595 0.97975 0 0.48988 0.19595 0.7838 0.68583 0.29393 0.48988 0 1.0777-1.3717 3.6251-3.5271 8.5239-2.0575 4.8988-4.8988 9.4056-2.8413 4.4089-6.3684 7.5441-3.5271 3.0372-7.6421 3.0372zm3.919-33.606q-1.4696 1.0777-2.8413 3.0372-1.2737 1.8615-2.3514 4.2129-1.0777 2.3514-1.8615 4.9967-0.68583 2.6453-0.97976 5.0947 1.9595 0 3.919-1.3717 2.0575-1.3717 3.6251-3.5271 1.6656-2.2534 2.6453-5.0947 0.97975-2.8413 0.97975-5.7805 0-1.5676-1.0777-1.9595-0.97975-0.48988-2.0575 0.3919z"/>
     <path d="m77.541-229.67q0.19595-0.97976 0.19595-1.8615 0.09798-0.88178 0.29393-1.8615 0.09798-0.19595 0.09798-0.68583-2.1555 4.5069-4.8988 7.838-2.7433 3.2332-6.0745 3.2332-2.9393 0-4.6048-1.6656-1.5676-1.7636-1.8615-4.4089-0.48988-4.017 0.19595-8.9158 0.7838-4.8988 2.6453-9.5036 1.8615-4.7028 4.6048-8.5239 2.8413-3.919 6.4664-5.8785 1.1757-0.68583 2.3514-0.58785 1.2737 0 2.5474 0.48987 1.2737 0.3919 2.5474 1.0777t2.6453 1.3717q0.19595-0.19595 0.29393-0.58785 0.09798-0.39191 0.19595-0.68583 0.58785-1.2737 1.4696-1.2737 0.68583 0 1.5676 0.29392 0.97975 0.29393 1.8615 0.78381 0.88178 0.3919 1.5676 0.88178 0.7838 0.48987 1.2737 0.88177 0.7838 0.58786 0.29393 1.4696-0.48988 0.78381-0.7838 1.5676-1.1757 3.2332-2.2534 6.8583-1.0777 3.6251-1.9595 7.2502-0.88178 3.6251-1.5676 7.0542-0.68583 3.3312-1.1757 5.9765-0.19595 1.0777 0.29393 1.1757 0.48988 0.098 1.0777-0.48987 2.2534-2.2534 4.115-5.2907 1.9595-3.1352 3.5271-6.4664 1.5676-3.3312 2.7433-6.5644 1.2737-3.2332 2.2534-5.7806 0.29393-0.58786 0.7838-0.78381 0.48988-0.19595 0.97975 0 0.48988 0.19595 0.68583 0.68583 0.29393 0.48988 0.098 1.0777-0.68583 1.6656-1.7636 4.4089-0.97975 2.7433-2.4494 5.9765-1.4696 3.1352-3.2332 6.3684-1.6656 3.2332-3.6251 5.8785-1.8615 2.5474-3.919 4.2129-2.0575 1.6656-4.115 1.6656-1.2737 0-2.3514-0.58785-0.97975-0.58785-1.7636-1.5676-0.68583-0.97975-1.0777-2.1555-0.29393-1.1757-0.19595-2.3514zm-7.5441 1.5676q1.1757 0 2.4494-1.5676 1.2737-1.6656 2.5474-4.115 1.3717-2.5474 2.5474-5.5846 1.1757-3.1352 2.1555-5.9765 1.0777-2.9393 1.7636-5.2907 0.7838-2.3514 1.1757-3.5271 0.19595-0.68582 0.3919-1.2737 0.29393-0.68582 0.58785-1.2737-0.7838-1.2737-2.3514-1.2737-2.5474 0-4.8008 2.7433-2.1555 2.7433-3.821 6.7603-1.6656 3.919-2.7433 8.3279-0.97975 4.3109-1.1757 7.4461 0 0.3919-0.09798 1.1757 0 0.78381 0.09798 1.5676 0.09798 0.68583 0.3919 1.2737 0.29393 0.58785 0.88178 0.58785z"/>
     <path d="m93.315-227.71q0.29393-3.821 1.0777-8.132 0.7838-4.4089 1.8615-8.7198 1.0777-4.4089 2.3514-8.5239 1.3717-4.2129 2.9393-7.74 0.48987-1.2737 1.3716-1.2737 1.4696 0 3.4291 1.0777 1.9595 0.97975 2.9393 1.7636 0.78381 0.58786 0.29393 1.4696-0.48988 0.78381-0.7838 1.5676-1.3717 3.5271-2.6453 7.5441-1.1757 4.017-2.1555 8.034 1.2737-2.8413 2.8413-5.8785 1.6656-3.0372 3.4291-5.8785 1.7636-2.8413 3.5271-5.1927 1.8615-2.3514 3.6251-3.821 0.68583-0.68582 1.8615-0.68582 0.3919 0 1.2737 0.19595t1.7636 0.58785q0.97975 0.3919 1.7636 0.88178 0.88178 0.3919 1.3716 0.97975 0.48988 0.58786 0.39191 1.0777-0.098 0.3919-0.29393 0.97976-1.6656 4.115-2.9393 8.3279-1.2737 4.2129-2.3514 8.4259 1.2737-2.8413 2.8413-5.8785 1.6656-3.0372 3.4291-5.8785 1.7636-2.8413 3.5271-5.1927 1.8615-2.3514 3.6251-3.821 0.7838-0.68582 1.8615-0.68582 0.58785 0 1.6656 0.29392 1.0777 0.29393 2.1555 0.88178 1.1757 0.48988 1.9595 1.1757 0.88178 0.58785 0.88178 1.2737 0 0.29392-0.098 0.58785-0.098 0.19595-0.19595 0.48988-0.3919 0.58785-0.68583 1.1757-0.19595 0.58785-0.3919 1.2737-1.1757 3.1352-2.2534 6.6623-1.0777 3.4291-1.9595 6.8583t-1.6656 6.6623q-0.68583 3.1352-1.0777 5.6826-0.19595 1.0777 0.19595 1.2737 0.48988 0.19595 1.2737-0.58785 2.1555-2.2534 4.115-5.2907 1.9595-3.1352 3.5271-6.4664 1.6656-3.3312 2.9393-6.5644 1.3717-3.2332 2.3514-5.7806 0.29393-0.58786 0.78381-0.78381 0.48987-0.19595 0.97975 0t0.7838 0.68583q0.29393 0.48988 0 1.0777-0.68582 1.6656-1.7636 4.4089t-2.5474 5.9765q-1.4696 3.1352-3.2332 6.3684-1.7636 3.2332-3.7231 5.8785-1.9595 2.5474-4.115 4.2129-2.0575 1.6656-4.115 1.6656-2.5474 0-4.2129-1.5676-1.6656-1.6656-1.4696-3.6251 0.39191-3.1352 0.97976-6.7603 0.68583-3.6251 1.5676-7.3482 0.88178-3.7231 1.8615-7.2502 1.0777-3.6251 2.1555-6.7603-1.5676 1.7636-3.3312 4.4089-1.7636 2.5474-3.4291 5.5846-1.6656 3.0372-3.1352 6.2704t-2.6453 6.2704q-1.0777 2.9393-1.8615 5.4866-0.68583 2.5474-0.7838 4.2129-0.098 0.78381-0.48988 0.97976-0.29392 0.098-0.7838 0.098-0.88178 0-1.9595-0.3919-1.0777-0.48988-2.0575-1.1757-0.88178-0.68583-1.5676-1.4696-0.58785-0.88178-0.58785-1.6656 0.58785-6.5644 2.2534-14.206 1.7636-7.6421 4.2129-14.304-2.4494 2.6453-5.0947 7.1522-2.6453 4.4089-4.8988 9.1117-2.1555 4.7028-3.7231 9.1117-1.4696 4.3109-1.6656 6.7603 0 0.78381-0.39191 0.97976-0.29392 0.098-0.7838 0.098-0.88178 0-1.9595-0.3919-1.0777-0.48988-2.0575-1.1757-0.88178-0.68583-1.5676-1.4696-0.58785-0.88178-0.58785-1.6656z"/>
    </g>
    <g transform="matrix(.10345 .00038536 -.0090403 .10269 -40.123 -11.504)" fill="#b484d0" stroke-width="1.8822" aria-label="Ice Cream">
     <path d="m563.72 11.353q0-3.1302 0.5217-7.6766 0.59624-4.5463 1.4906-9.5398 0.96888-4.9935 2.0868-9.9125 1.1925-4.919 2.385-8.7945 1.1925-3.9501 2.2359-6.4096 1.118-2.4595 1.9378-2.4595 0.52171 0 1.6397 0.37265 1.1179 0.29812 2.1614 0.7453 1.0434 0.44718 1.8632 0.96889t0.81983 0.96889q0 0.22359-0.14906 0.37265-0.29812 0.37265-0.52171 0.67077-0.22359 0.22359-0.37265 0.59624-1.1179 2.0123-2.3104 5.4407-1.1925 3.3538-2.3104 7.5275-1.118 4.0991-2.1614 8.5709-1.0434 4.4718-1.8632 8.5709-0.7453 4.0246-1.1925 7.3039-0.44718 3.2793-0.44718 5.068 0 0.89436-0.89435 0.89436-0.67077 0-1.5651-0.29812-0.81982-0.29812-1.5651-0.7453t-1.267-1.0434q-0.5217-0.59624-0.5217-1.1925z"/>
     <path d="m584.66 14.632q-4.4718 0-6.7822-2.2359-2.2359-2.2359-2.7576-5.5152-0.52171-3.3538 0.37265-7.2294 0.89436-3.9501 2.6831-7.2294 1.8632-3.3538 4.2482-5.5897 2.4595-2.2359 4.9935-2.2359 1.3415 0 2.6085 0.59624 1.267 0.52171 2.2359 1.4161 1.0434 0.89436 1.6397 2.0868 0.67076 1.1179 0.67076 2.3104 0 1.4906-0.37265 3.0557-0.37264 1.4906-0.96888 2.6831-0.52171 1.1925-1.1925 1.9378-0.67076 0.7453-1.3415 0.7453-0.81983 0-2.0868-0.7453-1.267-0.7453-2.0123-1.5651-0.37264-0.44718-0.22358-0.89436 0.22358-0.52171 0.81982-0.89436 1.118-0.67077 2.0123-1.7887 0.96889-1.1925 1.4161-2.4595 0.59624-1.4906 0.37265-2.2359t-0.96889-0.7453q-1.5651 0-3.1302 1.7142-1.5651 1.7142-2.8321 4.2482-1.1925 2.534-1.9378 5.5897-0.74529 2.9812-0.67077 5.5152 0.0745 2.534 1.0434 4.2482 1.0434 1.7142 3.3538 1.7142 2.4595 0 4.5463-2.0123 2.1614-2.0123 3.8755-4.919 1.7887-2.9812 3.1302-6.2605 1.4161-3.2793 2.4595-5.8133 0.22359-0.44718 0.59624-0.52171 0.37265-0.14906 0.67077 0 0.37264 0.14906 0.59623 0.52171t0 0.81983q-1.0434 2.6085-2.6085 6.335-1.5651 3.7265-3.652 7.1549t-4.7699 5.8133q-2.6831 2.385-6.0369 2.385z"/>
     <path d="m604.71 14.632q-3.3538 0-5.5152-1.267-2.0868-1.3415-3.1302-3.4284-1.0434-2.0868-1.1925-4.7699-0.14906-2.7576 0.44718-5.5152 0.67077-2.8321 1.8632-5.5152 1.1925-2.7576 2.8321-4.8444 1.6397-2.0868 3.5029-3.3538 1.9378-1.3415 3.9501-1.3415 1.0434 0 2.385 0.67077 1.4161 0.59624 2.6085 1.6397 1.1925 1.0434 2.0123 2.3104 0.81982 1.267 0.81982 2.4595 0 2.6085-1.3415 4.8444-1.3415 2.2359-3.4284 3.9501-2.0868 1.6397-4.5463 2.6085-2.385 0.89436-4.5463 0.89436-0.14906 2.9812 0.81982 5.068 1.0434 2.0868 3.652 2.0868 2.2359 0 4.3227-2.0123 2.1614-2.0123 3.9501-4.919 1.8632-2.9812 3.2793-6.2605 1.4906-3.2793 2.4595-5.8133 0.14906-0.44718 0.52171-0.52171 0.44718-0.14906 0.7453 0 0.37265 0.14906 0.59624 0.52171t0 0.81983q-1.0434 2.7576-2.6831 6.4841-1.5651 3.7265-3.7265 7.1549-2.1614 3.3538-4.8444 5.7388-2.6831 2.3104-5.8133 2.3104zm2.9812-25.564q-1.1179 0.81983-2.1614 2.3104-0.96888 1.4161-1.7887 3.2048t-1.4161 3.801q-0.5217 2.0123-0.74529 3.8755 1.4906 0 2.9812-1.0434 1.5651-1.0434 2.7576-2.6831 1.267-1.7142 2.0123-3.8755 0.74529-2.1614 0.74529-4.3973 0-1.1925-0.81982-1.4906-0.7453-0.37265-1.5651 0.29812z"/>
     <path d="m651.29-33.588q3.1302 0 5.4407 1.267 2.385 1.1925 3.2793 3.5774 0.81983 0.67077 1.267 1.6397 0.5217 0.89436 0.5217 1.7142 0 2.0123-1.1925 4.1737-1.1925 2.1614-2.6085 4.3227-1.4161 2.1614-2.6085 4.3227t-1.1925 4.1737q0 0.52171-0.37264 0.52171-0.67077 0-1.5651-0.29812-0.81982-0.37265-1.5651-0.96889-0.67077-0.59624-1.1925-1.3415-0.5217-0.81983-0.5217-1.7142 0-2.0123 1.1925-3.7265 1.1925-1.7887 2.534-3.4284 1.4161-1.6397 2.6085-3.2048 1.1925-1.6397 1.1925-3.3538 0-1.267-0.67077-2.385-0.59624-1.1179-2.2359-1.1179-3.652 0-7.0058 2.9812-3.2793 2.9812-5.8878 7.453-2.534 4.4718-4.0991 9.6889-1.4906 5.2171-1.5651 9.6889 0 4.4718 1.7887 7.453 1.7887 2.9812 5.8133 2.9812 1.4161 0 2.9812-0.37265 1.6396-0.44718 2.8321-1.267 0.37265-0.29812 0.59624 0.22359 0.22358 0.29812-0.0745 1.1179-0.81983 2.385-2.9812 3.3538-2.1614 0.89436-4.4718 0.89436-4.7699 0-7.8256-2.0868-2.9812-2.0868-4.4718-5.4407-1.4906-3.4284-1.6396-7.7511-0.14906-4.3973 0.89436-8.869 1.1179-4.5463 3.2048-8.869 2.0868-4.3973 5.068-7.7511 2.9812-3.4284 6.6332-5.5152 3.7265-2.0868 7.9002-2.0868z"/>
     <path d="m655.09 11.055q0.22359-2.9067 0.81983-6.186 0.59623-3.3538 1.4161-6.6331 0.81983-3.3538 1.7887-6.4841 1.0434-3.2048 2.2359-5.8878 0.37265-0.96889 1.0434-0.96889 0.52171 0 1.1925 0.22359 0.74529 0.22359 1.4161 0.59624 0.7453 0.29812 1.267 0.67077 0.59624 0.37265 0.96889 0.67077 0.59624 0.44718 0.22359 1.1179-0.37265 0.59624-0.59624 1.1925-1.0434 2.6831-2.0123 5.7388-0.89436 3.0557-1.6396 6.1114 0.96888-2.1614 2.1614-4.4718 1.267-2.3104 2.6085-4.4718 1.3415-2.1614 2.6831-3.9501 1.4161-1.7887 2.7576-2.9067 0.5217-0.52171 1.4161-0.52171 0.29812 0 0.89436 0.14906 0.59623 0.14906 1.267 0.44718 0.7453 0.22359 1.3415 0.59624 0.67076 0.29812 1.1179 0.7453 0.7453 0.7453 0.44718 1.3415-0.29812 0.52171-0.89436 0.96889-1.9378 1.6397-2.9066 4.0991-0.89436 2.4595-1.0434 4.3973-0.0745 1.4161 0.37265 2.0868 0.44718 0.59624 1.0434 0.59624 1.1925 0 2.3104-0.96889 1.118-0.96889 2.0868-2.3104 0.96888-1.3415 1.7887-2.7576t1.3415-2.3104q0.29812-0.44718 0.67077-0.44718 0.44718-0.07453 0.7453 0.14906 0.37265 0.22359 0.44718 0.59624 0.14906 0.37265-0.0745 0.81983-0.59624 1.0434-1.4906 2.534-0.89435 1.4161-2.0123 2.9067-1.0434 1.4161-2.3104 2.6831-1.1925 1.1925-2.534 1.6397-0.96889 0.37265-2.2359 0.14906-1.1925-0.22359-2.385-0.81983-1.118-0.67077-2.0123-1.6397-0.81983-1.0434-0.96889-2.3104-0.14906-1.7142 0.52171-3.9501 0.67077-2.3104 1.4906-4.0246 0.22359-0.52171 0.0745-0.44718-0.0745 0-0.29812 0.29812-1.7887 2.1614-3.7265 5.5152-1.8632 3.2793-3.4284 6.7077-1.5651 3.4284-2.6085 6.5586-1.0434 3.1302-1.1925 4.919 0 0.59624-0.29812 0.7453-0.22359 0.07453-0.59624 0.07453-0.67077 0-1.4906-0.29812-0.81983-0.37265-1.5651-0.89436-0.67076-0.52171-1.1925-1.1179-0.44718-0.67077-0.44718-1.267z"/>
     <path d="m689.23 14.632q-3.3538 0-5.5152-1.267-2.0868-1.3415-3.1302-3.4284-1.0434-2.0868-1.1925-4.7699-0.14906-2.7576 0.44718-5.5152 0.67076-2.8321 1.8632-5.5152 1.1925-2.7576 2.8321-4.8444 1.6396-2.0868 3.5029-3.3538 1.9378-1.3415 3.9501-1.3415 1.0434 0 2.385 0.67077 1.4161 0.59624 2.6085 1.6397 1.1925 1.0434 2.0123 2.3104 0.81983 1.267 0.81983 2.4595 0 2.6085-1.3415 4.8444-1.3415 2.2359-3.4284 3.9501-2.0868 1.6397-4.5463 2.6085-2.385 0.89436-4.5463 0.89436-0.14906 2.9812 0.81983 5.068 1.0434 2.0868 3.652 2.0868 2.2359 0 4.3227-2.0123 2.1614-2.0123 3.9501-4.919 1.8632-2.9812 3.2793-6.2605 1.4906-3.2793 2.4595-5.8133 0.14906-0.44718 0.52171-0.52171 0.44717-0.14906 0.74529 0 0.37265 0.14906 0.59624 0.52171t0 0.81983q-1.0434 2.7576-2.6831 6.4841-1.5651 3.7265-3.7265 7.1549-2.1614 3.3538-4.8444 5.7388-2.6831 2.3104-5.8133 2.3104zm2.9812-25.564q-1.118 0.81983-2.1614 2.3104-0.96889 1.4161-1.7887 3.2048-0.81982 1.7887-1.4161 3.801-0.52171 2.0123-0.7453 3.8755 1.4906 0 2.9812-1.0434 1.5651-1.0434 2.7576-2.6831 1.267-1.7142 2.0123-3.8755t0.7453-4.3973q0-1.1925-0.81983-1.4906-0.7453-0.37265-1.5651 0.29812z"/>
     <path d="m713.08 9.5645q0.14905-0.7453 0.14905-1.4161 0.0745-0.67077 0.22359-1.4161 0.0745-0.14906 0.0745-0.52171-1.6396 3.4284-3.7265 5.9624-2.0868 2.4595-4.6208 2.4595-2.2359 0-3.5029-1.267-1.1925-1.3415-1.4161-3.3538-0.37265-3.0557 0.14906-6.7822 0.59623-3.7265 2.0123-7.2294 1.4161-3.5774 3.5029-6.4841 2.1614-2.9812 4.919-4.4718 0.89436-0.52171 1.7887-0.44718 0.96888 0 1.9378 0.37265 0.96889 0.29812 1.9378 0.81983 0.96889 0.52171 2.0123 1.0434 0.14906-0.14906 0.22359-0.44718 0.0745-0.29812 0.14906-0.52171 0.44718-0.96889 1.118-0.96889 0.52171 0 1.1925 0.22359 0.7453 0.22359 1.4161 0.59624 0.67076 0.29812 1.1925 0.67077 0.59624 0.37265 0.96889 0.67077 0.59624 0.44718 0.22359 1.1179-0.37265 0.59624-0.59624 1.1925-0.89436 2.4595-1.7142 5.2171-0.81983 2.7576-1.4906 5.5152-0.67076 2.7576-1.1925 5.3661-0.52171 2.534-0.89436 4.5463-0.14906 0.81983 0.22359 0.89436t0.81983-0.37265q1.7142-1.7142 3.1302-4.0246 1.4906-2.385 2.6831-4.919 1.1925-2.534 2.0868-4.9935 0.96888-2.4595 1.7142-4.3973 0.22359-0.44718 0.59624-0.59624 0.37264-0.14906 0.74529 0t0.52171 0.52171q0.22359 0.37265 0.0745 0.81983-0.52171 1.267-1.3415 3.3538-0.7453 2.0868-1.8632 4.5463-1.1179 2.385-2.4595 4.8444-1.267 2.4595-2.7576 4.4718-1.4161 1.9378-2.9812 3.2048-1.5651 1.267-3.1302 1.267-0.96889 0-1.7887-0.44718-0.7453-0.44718-1.3415-1.1925-0.52171-0.7453-0.81983-1.6397-0.22358-0.89436-0.14905-1.7887zm-5.7388 1.1925q0.89435 0 1.8632-1.1925 0.96889-1.267 1.9378-3.1302 1.0434-1.9378 1.9378-4.2482 0.89435-2.385 1.6396-4.5463 0.81983-2.2359 1.3415-4.0246 0.59624-1.7887 0.89436-2.6831 0.14906-0.52171 0.29812-0.96889 0.22359-0.52171 0.44718-0.96889-0.59624-0.96889-1.7887-0.96889-1.9378 0-3.652 2.0868-1.6396 2.0868-2.9067 5.1425-1.267 2.9812-2.0868 6.335-0.7453 3.2793-0.89436 5.6643 0 0.29812-0.0745 0.89436 0 0.59624 0.0745 1.1925 0.0745 0.52171 0.29812 0.96889 0.22359 0.44718 0.67077 0.44718z"/>
     <path d="m725.08 11.055q0.22359-2.9067 0.81983-6.186 0.59624-3.3538 1.4161-6.6331 0.81982-3.3538 1.7887-6.4841 1.0434-3.2048 2.2359-5.8878 0.37265-0.96889 1.0434-0.96889 1.118 0 2.6085 0.81983 1.4906 0.7453 2.2359 1.3415 0.59623 0.44718 0.22358 1.1179-0.37264 0.59624-0.59623 1.1925-1.0434 2.6831-2.0123 5.7388-0.89436 3.0557-1.6397 6.1114 0.96889-2.1614 2.1614-4.4718 1.267-2.3104 2.6085-4.4718 1.3415-2.1614 2.6831-3.9501 1.4161-1.7887 2.7576-2.9067 0.52171-0.52171 1.4161-0.52171 0.29811 0 0.96888 0.14906 0.67077 0.14906 1.3415 0.44718 0.74529 0.29812 1.3415 0.67077 0.67077 0.29812 1.0434 0.7453 0.37264 0.44718 0.29812 0.81983-0.0745 0.29812-0.22359 0.7453-1.267 3.1302-2.2359 6.335-0.96888 3.2048-1.7887 6.4096 0.96889-2.1614 2.1614-4.4718 1.267-2.3104 2.6085-4.4718 1.3415-2.1614 2.6831-3.9501 1.4161-1.7887 2.7576-2.9067 0.59624-0.52171 1.4161-0.52171 0.44717 0 1.267 0.22359t1.6396 0.67077q0.89436 0.37265 1.4906 0.89436 0.67077 0.44718 0.67077 0.96889 0 0.22359-0.0745 0.44718-0.0745 0.14906-0.14906 0.37265-0.29812 0.44718-0.52171 0.89436-0.14906 0.44718-0.29812 0.96889-0.89436 2.385-1.7142 5.068-0.81983 2.6085-1.4906 5.2171-0.67077 2.6085-1.267 5.068-0.52171 2.385-0.81983 4.3227-0.14906 0.81983 0.14906 0.96889 0.37265 0.14906 0.96889-0.44718 1.6396-1.7142 3.1302-4.0246 1.4906-2.385 2.6831-4.919 1.267-2.534 2.2359-4.9935 1.0434-2.4595 1.7887-4.3973 0.22359-0.44718 0.59623-0.59624 0.37265-0.14906 0.7453 0t0.59624 0.52171 0 0.81983q-0.52171 1.267-1.3415 3.3538-0.81982 2.0868-1.9378 4.5463-1.1179 2.385-2.4595 4.8444-1.3415 2.4595-2.8321 4.4718-1.4906 1.9378-3.1302 3.2048-1.5651 1.267-3.1302 1.267-1.9378 0-3.2048-1.1925-1.267-1.267-1.1179-2.7576 0.29811-2.385 0.74529-5.1425 0.52171-2.7576 1.1925-5.5897 0.67077-2.8321 1.4161-5.5152 0.81983-2.7576 1.6397-5.1425-1.1925 1.3415-2.534 3.3538-1.3415 1.9378-2.6085 4.2482-1.267 2.3104-2.385 4.7699-1.118 2.4595-2.0123 4.7699-0.81982 2.2359-1.4161 4.1737-0.52171 1.9378-0.59624 3.2048-0.0745 0.59624-0.37265 0.7453-0.22359 0.07453-0.59623 0.07453-0.67077 0-1.4906-0.29812-0.81982-0.37265-1.5651-0.89436-0.67077-0.52171-1.1925-1.1179-0.44718-0.67077-0.44718-1.267 0.44718-4.9935 1.7142-10.807 1.3415-5.8133 3.2048-10.881-1.8632 2.0123-3.8755 5.4407-2.0123 3.3538-3.7265 6.9313-1.6397 3.5774-2.8321 6.9313-1.118 3.2793-1.267 5.1425 0 0.59624-0.29812 0.7453-0.22359 0.07453-0.59623 0.07453-0.67077 0-1.4906-0.29812-0.81983-0.37265-1.5651-0.89436-0.67077-0.52171-1.1925-1.1179-0.44718-0.67077-0.44718-1.267z"/>
    </g>
   </g>
   <g transform="matrix(.046649 -.00025974 -.0036459 .046342 178.96 100.43)" fill="#b484d0" filter="url(#filter1219-1-0)" stroke-width="2.4743" aria-label="Swap">
    <path d="m22.381-252.4q-0.88178 0-2.0575-0.3919-1.0777-0.48988-2.0575-1.2737t-1.6656-1.7636q-0.68583-1.0777-0.68583-2.1555 0-2.6453 1.5676-4.9967 1.5676-2.3514 3.3312-4.5069 1.8615-2.1555 3.4291-4.2129 1.5676-2.1555 1.5676-4.4089 0-1.6656-0.88178-3.0372-0.7838-1.4696-2.9393-1.4696-2.7433 0-5.8785 1.7636-3.1352 1.7636-5.7805 4.6048-2.6453 2.7433-4.4089 6.1724-1.6656 3.3312-1.6656 6.5644 0 3.1352 1.6656 5.0947 1.6656 1.8615 4.115 3.2332 2.4494 1.2737 5.1927 2.2534 2.7433 0.88178 4.8988 1.9595 3.7231 1.8615 5.8785 4.9968 2.2534 3.1352 1.3717 7.5441-0.88178 4.115-3.4291 7.2502-2.5474 3.1352-5.9765 5.2907-3.4291 2.1555-7.4461 3.1352-4.017 1.0777-7.936 1.0777-3.2332 0-6.1725-1.0777-2.9393-0.97976-5.0947-2.8413-2.0575-1.9595-3.0372-4.8008-0.97975-2.8413-0.19595-6.3684 0.7838-3.4291 2.8413-6.1724 0.3919-0.58785 0.97975-1.2737 0.68583-0.68582 1.4696-1.3716 0.7838-0.68583 1.6656-1.0777 0.88178-0.48988 1.6656-0.48988 0.97975 0 2.0575 0.58785 1.1757 0.48988 2.1555 1.3717 0.97975 0.7838 1.6656 1.7636 0.7838 0.97975 1.0777 1.8615 0.097975 0.48988 0.097975 0.97975 0 0.48988-0.58785 0.48988-1.4696 0-3.0372 0.7838-1.5676 0.68583-2.8413 1.8615-1.2737 1.1757-2.1555 2.6453-0.7838 1.4696-0.7838 3.0372 0 1.3717 0.68583 2.2534 0.68583 0.88178 1.6656 1.3717 1.0777 0.48988 2.2534 0.7838 1.2737 0.19595 2.3514 0.19595 2.1555 0 4.8988-0.68582 2.8413-0.68583 5.2907-2.0575 2.5474-1.3716 4.2129-3.3312 1.7636-2.0575 1.7636-4.8008 0-3.5271-3.821-6.0745-2.9393-1.8615-6.1725-3.2332-3.2332-1.4696-6.0745-3.1352-2.7433-1.7636-4.8008-4.3109-1.9595-2.5474-2.5474-6.6623-0.58785-4.7028 1.2737-9.4056 1.8615-4.8008 5.3886-8.6218 3.6251-3.919 8.3279-6.2704 4.8008-2.4494 9.9935-2.4494 4.115 0 7.1522 1.6656 3.0372 1.5676 4.3109 4.7028 1.0777 0.88178 1.6656 2.1555 0.58785 1.1757 0.58785 2.2534 0 2.6453-1.5676 5.4866-1.5676 2.8413-3.4291 5.6826-1.7636 2.8413-3.3312 5.6826-1.5676 2.8413-1.5676 5.4866 0 0.68583-0.48988 0.68583z"/>
    <path d="m72.152-261.51q1.8615 1.0777 2.5474 3.0372 0.7838 1.9595 0.19595 3.4291-1.1757 2.7433-2.7433 5.9765-1.4696 3.2332-3.3312 6.6623 1.1757 0.68583 2.7433 0.3919 2.3514-0.48987 4.6048-2.9393 2.2534-2.5474 5.0947-7.74 0.29393-0.58786 0.7838-0.68583 0.58785-0.098 0.97975 0.19595 0.48988 0.19595 0.68583 0.68583 0.19595 0.48987-0.09798 1.0777-3.1352 5.7805-5.9765 8.7198-2.7433 2.8413-5.5846 3.3312-2.7433 0.48988-4.6048-0.68583-2.2534 4.115-4.7028 7.936t-4.7028 6.6623q-0.7838 0.88178-1.7636 1.6656t-2.1555 0.7838q-0.88178 0-1.9595-0.29392-1.0777-0.29393-2.1555-0.78381-1.0777-0.58785-1.9595-1.1757-0.88178-0.68583-1.3717-1.3717-0.68583-0.88178-0.7838-2.3514 0-1.5676 0.19595-3.0372-1.4696 2.8413-3.3312 5.5846-1.7636 2.6453-3.4291 3.4291-1.1757 0-2.5474-0.3919-1.3717-0.48988-2.6453-1.1757-1.1757-0.78381-2.0575-1.7636-0.7838-1.0777-0.7838-2.2534 0-3.821 0.19595-7.936 0.29393-4.213 0.7838-8.4259t1.1757-8.2299q0.7838-4.017 1.7636-7.5441 0.48988-1.4696 1.6656-1.4696 1.4696 0 3.3312 0.68583 1.9595 0.58785 2.9393 1.2737 0.7838 0.48988 0.3919 1.4696-0.29393 0.88178-0.48988 1.5676-0.7838 2.8413-1.6656 6.5644-0.7838 3.6251-1.5676 7.4461-0.68583 3.7231-1.1757 7.3482-0.48988 3.6251-0.58785 6.2704 0 1.0777 0.29393 1.4696 0.3919 0.29393 1.1757-0.48988 1.8615-1.6656 3.7231-5.5846 1.8615-4.017 4.115-9.0137 0.88178-4.7028 1.9595-9.2097 1.1757-4.5069 2.2534-8.3279 0.48988-1.4696 1.6656-1.4696 1.4696 0 3.3312 0.68583 1.9595 0.58785 2.9393 1.2737 0.7838 0.48988 0.3919 1.4696-0.29393 0.88178-0.48988 1.5676-1.0777 2.9393-2.2534 6.7603-1.0777 3.821-2.0575 7.7401-0.88178 3.821-1.6656 7.4461-0.68583 3.6251-0.7838 6.2704 0 1.4696 0.88178 0.29393 1.2737-1.7636 2.6453-4.2129 1.4696-2.4494 2.8413-4.9968 1.4696-2.6453 2.6453-5.1927 1.2737-2.6453 2.3514-4.7028 0.19595-2.6453 1.2737-5.9765 1.1757-3.4291 3.7231-7.2502 0.48988-0.78381 1.3717-0.88178 0.97975-0.098 1.7636 0.3919z"/>
    <path d="m92.041-229.67q0.19595-0.97976 0.19595-1.8615 0.09798-0.88178 0.29393-1.8615 0.09798-0.19595 0.09798-0.68583-2.1555 4.5069-4.8988 7.838-2.7433 3.2332-6.0745 3.2332-2.9393 0-4.6048-1.6656-1.5676-1.7636-1.8615-4.4089-0.48988-4.017 0.19595-8.9158 0.7838-4.8988 2.6453-9.5036 1.8615-4.7028 4.6048-8.5239 2.8413-3.919 6.4664-5.8785 1.1757-0.68583 2.3514-0.58785 1.2737 0 2.5474 0.48987 1.2737 0.3919 2.5474 1.0777 1.2737 0.68583 2.6453 1.3717 0.19595-0.19595 0.29393-0.58785 0.09798-0.39191 0.19595-0.68583 0.58785-1.2737 1.4696-1.2737 0.68582 0 1.5676 0.29392 0.97975 0.29393 1.8615 0.78381 0.88178 0.3919 1.5676 0.88178 0.7838 0.48987 1.2737 0.88177 0.7838 0.58786 0.29392 1.4696-0.48987 0.78381-0.7838 1.5676-1.1757 3.2332-2.2534 6.8583-1.0777 3.6251-1.9595 7.2502-0.88179 3.6251-1.5676 7.0542-0.68583 3.3312-1.1757 5.9765-0.19595 1.0777 0.29393 1.1757 0.48988 0.098 1.0777-0.48987 2.2534-2.2534 4.115-5.2907 1.9595-3.1352 3.5271-6.4664 1.5676-3.3312 2.7433-6.5644 1.2737-3.2332 2.2534-5.7806 0.29392-0.58786 0.7838-0.78381t0.97976 0q0.48987 0.19595 0.68583 0.68583 0.29393 0.48988 0.098 1.0777-0.68583 1.6656-1.7636 4.4089-0.97975 2.7433-2.4494 5.9765-1.4696 3.1352-3.2332 6.3684-1.6656 3.2332-3.6251 5.8785-1.8615 2.5474-3.919 4.2129-2.0575 1.6656-4.115 1.6656-1.2737 0-2.3514-0.58785-0.97975-0.58785-1.7636-1.5676-0.68583-0.97975-1.0777-2.1555-0.29393-1.1757-0.19595-2.3514zm-7.5441 1.5676q1.1757 0 2.4494-1.5676 1.2737-1.6656 2.5474-4.115 1.3717-2.5474 2.5474-5.5846 1.1757-3.1352 2.1555-5.9765 1.0777-2.9393 1.7636-5.2907 0.7838-2.3514 1.1757-3.5271 0.19595-0.68582 0.3919-1.2737 0.29393-0.68582 0.58785-1.2737-0.7838-1.2737-2.3514-1.2737-2.5474 0-4.8008 2.7433-2.1555 2.7433-3.821 6.7603-1.6656 3.919-2.7433 8.3279-0.97975 4.3109-1.1757 7.4461 0 0.3919-0.09798 1.1757 0 0.78381 0.09798 1.5676 0.09797 0.68583 0.3919 1.2737 0.29393 0.58785 0.88178 0.58785z"/>
    <path d="m105.37-203.9q0-4.115 0.58786-10.189 0.58785-5.9765 1.6656-12.541 0.97975-6.5644 2.2534-13.031 1.2737-6.4664 2.5474-11.561 1.3717-5.1927 2.6453-8.4259t2.3514-3.2332q0.68583 0 2.1555 0.48988 1.4696 0.3919 2.8413 0.97975 1.3717 0.58786 2.4494 1.3717 1.0777 0.68583 1.0777 1.2737 0 0.098-0.19595 0.48988-0.29393 0.3919-0.68583 0.7838-0.29393 0.29393-0.48988 0.7838-0.88178 1.5676-1.7636 3.7231-0.7838 2.0575-1.5676 4.7028 1.4696-2.7433 3.1352-5.2907 1.6656-2.6453 3.4291-5.0947 1.4696-1.9595 3.1352-3.2332 1.6656-1.3717 3.3312-1.3717 1.5676 0 3.0372 0.88178 1.4696 0.88178 2.5474 2.1555 1.0777 1.2737 1.7636 2.8413 0.68583 1.4696 0.68583 2.6453 0 4.115-1.6656 8.7198-1.6656 4.5069-3.919 8.8178 3.4291-2.5474 6.4664-6.2704 3.0372-3.821 5.1927-9.1117 0.29392-0.58785 0.7838-0.68583 0.48988-0.19595 0.97975 0 0.48988 0.19595 0.68583 0.68583 0.29393 0.48988 0.098 1.0777-2.5474 6.3684-7.0542 11.365-4.5069 4.9967-10.581 8.2299-2.8413 3.919-6.0745 6.4664-3.1352 2.4494-5.6826 2.4494-1.9595 0-3.4291-0.48987-1.3717-0.58786-2.1555-1.3717-0.68583 3.821-1.2737 7.4461-0.48988 3.6251-0.88178 6.7603-0.3919 3.2332-0.58785 5.7806-0.19596 2.5474-0.19596 4.115 0 1.1757-1.1757 1.1757-0.88178 0-2.0575-0.3919-1.0777-0.3919-2.0575-0.97975-0.97975-0.58785-1.6656-1.3717-0.68583-0.7838-0.68583-1.5676zm24.886-53.103q-4.7028 5.5846-7.936 12.149-3.1352 6.4664-5.0947 13.325-0.19595 0.58786-0.29393 1.1757 0 0.48987-0.19595 1.0777 0.97975-0.58786 2.5474-0.78381 1.1757-0.098 2.5474-0.48987 1.4696-0.3919 3.0372-0.88178 1.3716-1.8615 2.8413-4.6048 1.4696-2.7433 2.6453-5.8785 1.1757-3.1352 1.9595-6.4664 0.7838-3.4291 0.97975-6.6623 0-3.0372-1.4696-2.8413-0.88178 0-1.5676 0.88178z"/>
   </g>
   <g transform="matrix(.046649 -.00025974 -.0036459 .046342 178.9 100.28)" fill="#b484d0" filter="url(#filter1219-1-2-3)" stroke-width="2.4743" aria-label="Swap">
    <path d="m22.381-252.4q-0.88178 0-2.0575-0.3919-1.0777-0.48988-2.0575-1.2737t-1.6656-1.7636q-0.68583-1.0777-0.68583-2.1555 0-2.6453 1.5676-4.9967 1.5676-2.3514 3.3312-4.5069 1.8615-2.1555 3.4291-4.2129 1.5676-2.1555 1.5676-4.4089 0-1.6656-0.88178-3.0372-0.7838-1.4696-2.9393-1.4696-2.7433 0-5.8785 1.7636-3.1352 1.7636-5.7805 4.6048-2.6453 2.7433-4.4089 6.1724-1.6656 3.3312-1.6656 6.5644 0 3.1352 1.6656 5.0947 1.6656 1.8615 4.115 3.2332 2.4494 1.2737 5.1927 2.2534 2.7433 0.88178 4.8988 1.9595 3.7231 1.8615 5.8785 4.9968 2.2534 3.1352 1.3717 7.5441-0.88178 4.115-3.4291 7.2502-2.5474 3.1352-5.9765 5.2907-3.4291 2.1555-7.4461 3.1352-4.017 1.0777-7.936 1.0777-3.2332 0-6.1725-1.0777-2.9393-0.97976-5.0947-2.8413-2.0575-1.9595-3.0372-4.8008-0.97975-2.8413-0.19595-6.3684 0.7838-3.4291 2.8413-6.1724 0.3919-0.58785 0.97975-1.2737 0.68583-0.68582 1.4696-1.3716 0.7838-0.68583 1.6656-1.0777 0.88178-0.48988 1.6656-0.48988 0.97975 0 2.0575 0.58785 1.1757 0.48988 2.1555 1.3717 0.97975 0.7838 1.6656 1.7636 0.7838 0.97975 1.0777 1.8615 0.097975 0.48988 0.097975 0.97975 0 0.48988-0.58785 0.48988-1.4696 0-3.0372 0.7838-1.5676 0.68583-2.8413 1.8615-1.2737 1.1757-2.1555 2.6453-0.7838 1.4696-0.7838 3.0372 0 1.3717 0.68583 2.2534 0.68583 0.88178 1.6656 1.3717 1.0777 0.48988 2.2534 0.7838 1.2737 0.19595 2.3514 0.19595 2.1555 0 4.8988-0.68582 2.8413-0.68583 5.2907-2.0575 2.5474-1.3716 4.2129-3.3312 1.7636-2.0575 1.7636-4.8008 0-3.5271-3.821-6.0745-2.9393-1.8615-6.1725-3.2332-3.2332-1.4696-6.0745-3.1352-2.7433-1.7636-4.8008-4.3109-1.9595-2.5474-2.5474-6.6623-0.58785-4.7028 1.2737-9.4056 1.8615-4.8008 5.3886-8.6218 3.6251-3.919 8.3279-6.2704 4.8008-2.4494 9.9935-2.4494 4.115 0 7.1522 1.6656 3.0372 1.5676 4.3109 4.7028 1.0777 0.88178 1.6656 2.1555 0.58785 1.1757 0.58785 2.2534 0 2.6453-1.5676 5.4866-1.5676 2.8413-3.4291 5.6826-1.7636 2.8413-3.3312 5.6826-1.5676 2.8413-1.5676 5.4866 0 0.68583-0.48988 0.68583z"/>
    <path d="m72.152-261.51q1.8615 1.0777 2.5474 3.0372 0.7838 1.9595 0.19595 3.4291-1.1757 2.7433-2.7433 5.9765-1.4696 3.2332-3.3312 6.6623 1.1757 0.68583 2.7433 0.3919 2.3514-0.48987 4.6048-2.9393 2.2534-2.5474 5.0947-7.74 0.29393-0.58786 0.7838-0.68583 0.58785-0.098 0.97975 0.19595 0.48988 0.19595 0.68583 0.68583 0.19595 0.48987-0.09798 1.0777-3.1352 5.7805-5.9765 8.7198-2.7433 2.8413-5.5846 3.3312-2.7433 0.48988-4.6048-0.68583-2.2534 4.115-4.7028 7.936t-4.7028 6.6623q-0.7838 0.88178-1.7636 1.6656t-2.1555 0.7838q-0.88178 0-1.9595-0.29392-1.0777-0.29393-2.1555-0.78381-1.0777-0.58785-1.9595-1.1757-0.88178-0.68583-1.3717-1.3717-0.68583-0.88178-0.7838-2.3514 0-1.5676 0.19595-3.0372-1.4696 2.8413-3.3312 5.5846-1.7636 2.6453-3.4291 3.4291-1.1757 0-2.5474-0.3919-1.3717-0.48988-2.6453-1.1757-1.1757-0.78381-2.0575-1.7636-0.7838-1.0777-0.7838-2.2534 0-3.821 0.19595-7.936 0.29393-4.213 0.7838-8.4259t1.1757-8.2299q0.7838-4.017 1.7636-7.5441 0.48988-1.4696 1.6656-1.4696 1.4696 0 3.3312 0.68583 1.9595 0.58785 2.9393 1.2737 0.7838 0.48988 0.3919 1.4696-0.29393 0.88178-0.48988 1.5676-0.7838 2.8413-1.6656 6.5644-0.7838 3.6251-1.5676 7.4461-0.68583 3.7231-1.1757 7.3482-0.48988 3.6251-0.58785 6.2704 0 1.0777 0.29393 1.4696 0.3919 0.29393 1.1757-0.48988 1.8615-1.6656 3.7231-5.5846 1.8615-4.017 4.115-9.0137 0.88178-4.7028 1.9595-9.2097 1.1757-4.5069 2.2534-8.3279 0.48988-1.4696 1.6656-1.4696 1.4696 0 3.3312 0.68583 1.9595 0.58785 2.9393 1.2737 0.7838 0.48988 0.3919 1.4696-0.29393 0.88178-0.48988 1.5676-1.0777 2.9393-2.2534 6.7603-1.0777 3.821-2.0575 7.7401-0.88178 3.821-1.6656 7.4461-0.68583 3.6251-0.7838 6.2704 0 1.4696 0.88178 0.29393 1.2737-1.7636 2.6453-4.2129 1.4696-2.4494 2.8413-4.9968 1.4696-2.6453 2.6453-5.1927 1.2737-2.6453 2.3514-4.7028 0.19595-2.6453 1.2737-5.9765 1.1757-3.4291 3.7231-7.2502 0.48988-0.78381 1.3717-0.88178 0.97975-0.098 1.7636 0.3919z"/>
    <path d="m92.041-229.67q0.19595-0.97976 0.19595-1.8615 0.09798-0.88178 0.29393-1.8615 0.09798-0.19595 0.09798-0.68583-2.1555 4.5069-4.8988 7.838-2.7433 3.2332-6.0745 3.2332-2.9393 0-4.6048-1.6656-1.5676-1.7636-1.8615-4.4089-0.48988-4.017 0.19595-8.9158 0.7838-4.8988 2.6453-9.5036 1.8615-4.7028 4.6048-8.5239 2.8413-3.919 6.4664-5.8785 1.1757-0.68583 2.3514-0.58785 1.2737 0 2.5474 0.48987 1.2737 0.3919 2.5474 1.0777 1.2737 0.68583 2.6453 1.3717 0.19595-0.19595 0.29393-0.58785 0.09798-0.39191 0.19595-0.68583 0.58785-1.2737 1.4696-1.2737 0.68582 0 1.5676 0.29392 0.97975 0.29393 1.8615 0.78381 0.88178 0.3919 1.5676 0.88178 0.7838 0.48987 1.2737 0.88177 0.7838 0.58786 0.29392 1.4696-0.48987 0.78381-0.7838 1.5676-1.1757 3.2332-2.2534 6.8583-1.0777 3.6251-1.9595 7.2502-0.88179 3.6251-1.5676 7.0542-0.68583 3.3312-1.1757 5.9765-0.19595 1.0777 0.29393 1.1757 0.48988 0.098 1.0777-0.48987 2.2534-2.2534 4.115-5.2907 1.9595-3.1352 3.5271-6.4664 1.5676-3.3312 2.7433-6.5644 1.2737-3.2332 2.2534-5.7806 0.29392-0.58786 0.7838-0.78381t0.97976 0q0.48987 0.19595 0.68583 0.68583 0.29393 0.48988 0.098 1.0777-0.68583 1.6656-1.7636 4.4089-0.97975 2.7433-2.4494 5.9765-1.4696 3.1352-3.2332 6.3684-1.6656 3.2332-3.6251 5.8785-1.8615 2.5474-3.919 4.2129-2.0575 1.6656-4.115 1.6656-1.2737 0-2.3514-0.58785-0.97975-0.58785-1.7636-1.5676-0.68583-0.97975-1.0777-2.1555-0.29393-1.1757-0.19595-2.3514zm-7.5441 1.5676q1.1757 0 2.4494-1.5676 1.2737-1.6656 2.5474-4.115 1.3717-2.5474 2.5474-5.5846 1.1757-3.1352 2.1555-5.9765 1.0777-2.9393 1.7636-5.2907 0.7838-2.3514 1.1757-3.5271 0.19595-0.68582 0.3919-1.2737 0.29393-0.68582 0.58785-1.2737-0.7838-1.2737-2.3514-1.2737-2.5474 0-4.8008 2.7433-2.1555 2.7433-3.821 6.7603-1.6656 3.919-2.7433 8.3279-0.97975 4.3109-1.1757 7.4461 0 0.3919-0.09798 1.1757 0 0.78381 0.09798 1.5676 0.09797 0.68583 0.3919 1.2737 0.29393 0.58785 0.88178 0.58785z"/>
    <path d="m105.37-203.9q0-4.115 0.58786-10.189 0.58785-5.9765 1.6656-12.541 0.97975-6.5644 2.2534-13.031 1.2737-6.4664 2.5474-11.561 1.3717-5.1927 2.6453-8.4259t2.3514-3.2332q0.68583 0 2.1555 0.48988 1.4696 0.3919 2.8413 0.97975 1.3717 0.58786 2.4494 1.3717 1.0777 0.68583 1.0777 1.2737 0 0.098-0.19595 0.48988-0.29393 0.3919-0.68583 0.7838-0.29393 0.29393-0.48988 0.7838-0.88178 1.5676-1.7636 3.7231-0.7838 2.0575-1.5676 4.7028 1.4696-2.7433 3.1352-5.2907 1.6656-2.6453 3.4291-5.0947 1.4696-1.9595 3.1352-3.2332 1.6656-1.3717 3.3312-1.3717 1.5676 0 3.0372 0.88178 1.4696 0.88178 2.5474 2.1555 1.0777 1.2737 1.7636 2.8413 0.68583 1.4696 0.68583 2.6453 0 4.115-1.6656 8.7198-1.6656 4.5069-3.919 8.8178 3.4291-2.5474 6.4664-6.2704 3.0372-3.821 5.1927-9.1117 0.29392-0.58785 0.7838-0.68583 0.48988-0.19595 0.97975 0 0.48988 0.19595 0.68583 0.68583 0.29393 0.48988 0.098 1.0777-2.5474 6.3684-7.0542 11.365-4.5069 4.9967-10.581 8.2299-2.8413 3.919-6.0745 6.4664-3.1352 2.4494-5.6826 2.4494-1.9595 0-3.4291-0.48987-1.3717-0.58786-2.1555-1.3717-0.68583 3.821-1.2737 7.4461-0.48988 3.6251-0.88178 6.7603-0.3919 3.2332-0.58785 5.7806-0.19596 2.5474-0.19596 4.115 0 1.1757-1.1757 1.1757-0.88178 0-2.0575-0.3919-1.0777-0.3919-2.0575-0.97975-0.97975-0.58785-1.6656-1.3717-0.68583-0.7838-0.68583-1.5676zm24.886-53.103q-4.7028 5.5846-7.936 12.149-3.1352 6.4664-5.0947 13.325-0.19595 0.58786-0.29393 1.1757 0 0.48987-0.19595 1.0777 0.97975-0.58786 2.5474-0.78381 1.1757-0.098 2.5474-0.48987 1.4696-0.3919 3.0372-0.88178 1.3716-1.8615 2.8413-4.6048 1.4696-2.7433 2.6453-5.8785 1.1757-3.1352 1.9595-6.4664 0.7838-3.4291 0.97975-6.6623 0-3.0372-1.4696-2.8413-0.88178 0-1.5676 0.88178z"/>
   </g>
   <g fill="#fffaff" stroke-width=".11502">
    <path d="m180.88 81.179q-0.0412 2.26e-4 -0.0945-0.01769-0.0485-0.0224-0.0914-0.05846-0.0428-0.03606-0.0712-0.08125-0.0281-0.04971-0.0242-0.09972 0.01-0.12259 0.0914-0.23196 0.0817-0.10938 0.17182-0.20973 0.0947-0.10038 0.17532-0.19612 0.081-0.1003 0.0892-0.20473 6e-3 -0.07713-0.0301-0.14052-0.0312-0.06789-0.13176-0.0673-0.12797 7.07e-4 -0.28066 0.08322-0.15269 0.08253-0.28645 0.2149-0.1334 0.12781-0.22817 0.28719-0.0898 0.15481-0.10164 0.30463-0.0114 0.1453 0.0591 0.23567 0.0709 0.08587 0.18018 0.14875 0.10962 0.05836 0.23402 0.1031 0.12476 0.04018 0.22138 0.08951 0.16689 0.08528 0.25601 0.23004 0.0937 0.14471 0.0365 0.34925-0.0561 0.19092-0.1864 0.33688-0.13028 0.14595-0.29809 0.24673-0.16781 0.10079-0.35878 0.14722-0.19133 0.05099-0.37415 0.05197-0.15083 8.35e-4 -0.28401-0.04834-0.13353-0.04461-0.2273-0.13034-0.0888-0.09029-0.12418-0.22169-0.0354-0.13141 0.0141-0.29508 0.049-0.15912 0.15506-0.28678 0.0204-0.02731 0.0503-0.05925 0.0345-0.03193 0.0736-0.06396 0.039-0.03203 0.0816-0.0504 0.0429-0.02289 0.0795-0.02309 0.0457-2.56e-4 0.0938 0.02672 0.053 0.0224 0.0955 0.06298 0.0428 0.03606 0.0713 0.08135 0.033 0.0452 0.0434 0.08597 3e-3 0.0227 9.8e-4 0.04539-2e-3 0.0227-0.0292 0.02289-0.0686 3.83e-4 -0.14452 0.03714-0.0757 0.03223-0.13933 0.08695-0.0637 0.05482-0.1102 0.12316-0.0419 0.06829-0.0477 0.14095-5e-3 0.06357 0.0238 0.10426 0.0288 0.04068 0.0727 0.06318 0.0485 0.0224 0.10227 0.03576 0.0588 0.0088 0.10898 0.0088 0.10055-5.6e-4 0.23102-0.03301 0.13505-0.03252 0.25431-0.09668 0.12385-0.06426 0.20868-0.15546 0.0898-0.0958 0.0998-0.22294 0.0129-0.16345-0.1561-0.28052-0.13033-0.08548-0.27616-0.14822-0.14546-0.0673-0.27193-0.14371-0.12154-0.08096-0.20824-0.19854-0.0821-0.11754-0.0945-0.30808-0.0104-0.21779 0.0937-0.4362 0.10434-0.22296 0.28281-0.40096 0.18339-0.18255 0.41135-0.29274 0.23289-0.11476 0.47512-0.11609 0.19196-9.83e-4 0.32757 0.07536 0.13597 0.07182 0.18396 0.21682 0.0471 0.04058 0.0699 0.09947 0.0231 0.05433 0.0192 0.10428-0.01 0.12259-0.0932 0.25467-0.0835 0.13206-0.18068 0.26423-0.0927 0.13212-0.17611 0.2642-0.0835 0.13207-0.0931 0.25467-3e-3 0.03183-0.0254 0.03193z"/>
    <path d="m183.24 80.744q0.0829 0.04942 0.10775 0.1401 0.0294 0.09059-4e-3 0.15887-0.0649 0.12744-0.14976 0.27767-0.0804 0.15022-0.17968 0.30961 0.0524 0.03144 0.12654 0.01749 0.11148-0.02329 0.22553-0.1374 0.11439-0.11862 0.26588-0.36002 0.0158-0.02731 0.0391-0.03203 0.0278-0.0049 0.045 0.0088 0.0221 0.0088 0.0295 0.03164 7e-3 0.0227-9e-3 0.05001-0.16734 0.26869-0.3106 0.40564-0.13832 0.13238-0.27266 0.15581-0.12975 0.02338-0.21231-0.03056-0.12013 0.19128-0.24832 0.36899-0.1282 0.17772-0.24367 0.30997-0.0398 0.04107-0.0883 0.07762t-0.1034 0.03694q-0.0411 2.26e-4 -0.0903-0.01317-0.0492-0.01336-0.0977-0.03576-0.0481-0.02692-0.0872-0.05394-0.0386-0.03154-0.059-0.06318-0.0288-0.04068-0.028-0.10876 6e-3 -0.07261 0.0202-0.14081-0.0789 0.13205-0.17576 0.25966-0.0919 0.12305-0.17247 0.15982-0.0548 3.05e-4 -0.1174-0.01749-0.0622-0.0223-0.11912-0.05384-0.052-0.03606-0.0895-0.08116-0.0326-0.04972-0.0284-0.10423 0.0139-0.17707 0.0381-0.36783 0.0291-0.19531 0.0673-0.39067t0.0848-0.3817q0.0512-0.18636 0.10977-0.35006 0.0282-0.06819 0.083-0.06848 0.0686-3.84e-4 0.1529 0.03095 0.0893 0.02673 0.13247 0.05826 0.0348 0.0225 0.0129 0.06799-0.0169 0.04097-0.0286 0.07281-0.047 0.13186-0.10164 0.30463-0.0498 0.16819-0.10028 0.34547-0.0456 0.17272-0.0816 0.34084-0.0361 0.16812-0.0503 0.29074-4e-3 0.04991 9e-3 0.06799 0.0173 0.01346 0.0566-0.02299 0.093-0.07772 0.19404-0.25977 0.10148-0.18664 0.22482-0.41878 0.0583-0.21817 0.125-0.4273 0.0712-0.20917 0.13547-0.38652 0.0282-0.06819 0.083-0.06848 0.0686-3.83e-4 0.1529 0.03095 0.0892 0.02672 0.13247 0.05826 0.0348 0.0225 0.0129 0.06799-0.0169 0.04097-0.0286 0.07281-0.061 0.13649-0.12977 0.31387-0.0642 0.17736-0.12418 0.35923-0.0551 0.1773-0.10485 0.3455-0.0452 0.16817-0.0594 0.29078-5e-3 0.06809 0.0401 0.01336 0.0658-0.08204 0.13875-0.19592 0.0775-0.11388 0.15076-0.2323 0.0782-0.12298 0.14234-0.24133 0.0691-0.12291 0.12683-0.21854 0.0188-0.12264 0.0813-0.2773 0.0674-0.15922 0.20012-0.33696 0.0257-0.03645 0.0672-0.04117 0.0461-0.0049 0.0809 0.01769z"/>
    <path d="m184.05 82.214q0.0127-0.04549 0.0158-0.08636 8e-3 -0.04087 0.0205-0.08636 6e-3 -0.0088 7e-3 -0.03183-0.117 0.20942-0.2571 0.3645-0.13975 0.15055-0.29516 0.15143-0.13712 7.57e-4 -0.20874-0.07595-0.0667-0.08135-0.0708-0.20383-8e-3 -0.18603 0.0417-0.41323 0.0544-0.22722 0.15805-0.4411 0.104-0.21842 0.24589-0.3962 0.14683-0.18236 0.32309-0.2741 0.0574-0.03213 0.11182-0.02781 0.0594-3.24e-4 0.11705 0.02201 0.058 0.01778 0.11491 0.04932 0.0569 0.03144 0.11839 0.06288 0.01-0.0088 0.0158-0.02731 6e-3 -0.01818 0.0115-0.03183 0.032-0.05915 0.0732-0.05944 0.032-1.77e-4 0.072 0.01317 0.0446 0.01336 0.084 0.03586 0.0397 0.01788 0.0699 0.04048 0.0348 0.0225 0.0562 0.04058 0.0344 0.02702 9e-3 0.06799-0.0257 0.03645-0.0422 0.07281-0.0666 0.15013-0.13014 0.31841-0.0635 0.16828-0.11784 0.3365-0.0543 0.16823-0.0988 0.32732-0.0441 0.15454-0.0766 0.27727-0.013 0.05001 0.01 0.05443 0.0225 0.0049 0.0521-0.02299 0.11332-0.105 0.21125-0.24625 0.10282-0.1458 0.18811-0.30058 0.0853-0.1548 0.15191-0.30492 0.0712-0.15017 0.12621-0.26846 0.0158-0.02731 0.0394-0.03655 0.0236-0.0088 0.0457-2.55e-4 0.0221 0.0088 0.0295 0.03164 0.012 0.0226 6.4e-4 0.04991-0.038 0.07733-0.0983 0.20478-0.0557 0.12737-0.13605 0.2776-0.08 0.14567-0.17403 0.29596-0.0895 0.15027-0.19055 0.27336-0.0961 0.11854-0.19818 0.19626-0.10205 0.07772-0.19803 0.07821-0.0594 3.34e-4 -0.10754-0.02663-0.0435-0.02702-0.0765-0.07222-0.0284-0.0452-0.0423-0.09961-0.01-0.05443-5.7e-4 -0.10891zm-0.35764 0.07457q0.0548-3.05e-4 0.11999-0.0733 0.0654-0.07752 0.13383-0.19136 0.0733-0.11839 0.13919-0.25945 0.0663-0.14562 0.12234-0.27752 0.061-0.1365 0.10155-0.24564 0.0451-0.10917 0.0677-0.16375 0.0115-0.03183 0.0229-0.05915 0.0163-0.03183 0.032-0.05915-0.0319-0.05885-0.10506-0.05846-0.11881 6.58e-4 -0.23394 0.12838-0.11057 0.1277-0.2029 0.31428-0.092 0.18205-0.15833 0.38664-0.0614 0.20003-0.082 0.34538-9.8e-4 0.01818-9e-3 0.05453-3e-3 0.03635-9.8e-4 0.07261 2e-3 0.03173 0.0135 0.05895 0.0115 0.02712 0.039 0.02702z"/>
    <path d="m184.58 83.405q0.0149-0.19069 0.0646-0.47235 0.0492-0.27711 0.12342-0.5816 0.0697-0.30446 0.15262-0.60445 0.083-0.29999 0.16098-0.53643 0.0829-0.24099 0.15412-0.39116 0.0712-0.15017 0.12149-0.15042 0.032-1.77e-4 0.0988 0.02211 0.0671 0.01778 0.12898 0.04461 0.0618 0.02692 0.10924 0.06298 0.0478 0.03154 0.0457 0.05876-3.6e-4 0.0049-0.0109 0.02279-0.0151 0.01828-0.0349 0.03645-0.0148 0.01366-0.0257 0.03645-0.0469 0.0729-0.0959 0.17299-0.0441 0.0955-0.0903 0.21835 0.0785-0.12751 0.16554-0.246 0.0874-0.12304 0.17855-0.23699 0.0757-0.09118 0.15805-0.15065 0.0827-0.06406 0.1604-0.06445 0.0731-4.03e-4 0.13848 0.04009 0.0653 0.04048 0.11096 0.09922 0.0456 0.05876 0.0719 0.13121 0.0266 0.06789 0.0223 0.12241-0.0149 0.1907-0.10947 0.40452-0.0941 0.20929-0.21497 0.40965 0.16926-0.11894 0.32451-0.29226 0.15562-0.17786 0.27546-0.4236 0.0158-0.02731 0.0391-0.03203 0.0236-0.0088 0.0457-2.56e-4 0.0222 0.0088 0.0295 0.03164 0.012 0.0226 6.4e-4 0.04991-0.14206 0.29578-0.37052 0.52851-0.22845 0.23273-0.52361 0.38414-0.14683 0.18236-0.30694 0.30124-0.15519 0.11434-0.27402 0.11499-0.0914 5.11e-4 -0.15816-0.02181-0.0618-0.02692-0.0956-0.06298-0.0459 0.17725-0.0866 0.3454-0.0361 0.16812-0.0658 0.31351-0.0301 0.14994-0.0485 0.26804-0.0185 0.11809-0.0242 0.19075-4e-3 0.05453-0.0591 0.05473-0.0412 2.26e-4 -0.0945-0.01769-0.0488-0.01788-0.0923-0.0449t-0.0727-0.06308q-0.0291-0.03616-0.0262-0.07251zm1.3545-2.4673q-0.23974 0.26002-0.4145 0.56507-0.16983 0.30048-0.28625 0.61881-0.0112 0.02731-0.018 0.05453-2e-3 0.0227-0.013 0.05001 0.0478-0.02751 0.1217-0.03694 0.0552-0.0049 0.12063-0.02338 0.0701-0.01857 0.14491-0.04166 0.0707-0.08666 0.14933-0.21413 0.0785-0.12751 0.14483-0.27311 0.0663-0.14559 0.11499-0.30017 0.049-0.15912 0.07-0.309 0.011-0.14076-0.0582-0.1313-0.0412 2.26e-4 -0.0763 0.04127z"/>
   </g>
   <ellipse cx="170.15" cy="48.71" rx="27.118" ry="24.24" fill="url(#linearGradient1409)" stroke-linecap="round" stroke-linejoin="round" stroke-width="5.1894"/>
   <g transform="matrix(1.8283 0 0 1.8283 109.41 -41.45)">
    <g transform="matrix(.052083 0 0 .052083 16.411 42.454)">
     <path d="m317.07 283.98c-12.187 0.14716-24.67-6.9611-24.422-27.189-0.0318-29.201 0.55834-60.084 0.45311-89.4 0.7465-0.0313 3.0514-0.0407 6.7557-0.0407h32.773c3.7043 0 6.6565-4e-3 6.6565-4e-3l0.0282 89.119c0.14599 14.545-10.057 27.367-22.244 27.514z" fill="#cb6c34" stop-color="#000000" stroke="#9d5329" stroke-linejoin="round" stroke-width="6.533" style="font-variation-settings:normal"/>
     <path transform="matrix(.26458 0 0 .26458 80.392 -141.86)" d="m887.09 266.61c-197.66-0.1251-392.9 151.41-392.9 337.52 0 4.6349 0.11087 9.2693 0.33008 13.9v547.43c0 0.8498 0.0123 1.6966 0.0371 2.541 2e-5 7e-4 -2e-5 0 0 0 0.0248 0.8438 0.062 1.6852 0.11133 2.5234 4e-5 7e-4 -4e-5 0 0 0 0.0986 1.6772 0.24653 3.3426 0.44141 4.9961 7e-5 6e-4 -8e-5 0 0 0 0.19493 1.6535 0.43775 3.2942 0.72656 4.9219 1.1e-4 6e-4 -1.1e-4 0 0 0 0.28884 1.6276 0.62355 3.2418 1.0039 4.8417 1.5e-4 7e-4 -1.4e-4 0 0 0 0.19012 0.7996 0.39294 1.5963 0.60547 2.3887 1.7e-4 6e-4 -1.6e-4 0 0 0 0.42525 1.5853 0.89499 3.1546 1.4082 4.709 1.9e-4 6e-4 -2e-4 0 0 0 0.51327 1.5544 1.071 3.0936 1.6699 4.6152 2.2e-4 6e-4 -2.3e-4 0 0 0 1.7972 4.5659 3.9746 8.979 6.5 13.213 2.9e-4 5e-4 -2.9e-4 0 0 0 0.42068 0.7052 0.85116 1.4045 1.291 2.0996 3e-4 5e-4 -2.9e-4 0 0 0 0.88004 1.3907 1.7989 2.7605 2.7539 4.1093 3.1e-4 5e-4 -3.1e-4 0 0 0 0.47737 0.6742 0.96528 1.3425 1.4609 2.0058 3.1e-4 5e-4 -3.2e-4 0 0 0 0.49567 0.6633 1.002 1.3204 1.5156 1.9727 3.2e-4 4e-4 -3.2e-4 0 0 0 1.0277 1.3049 2.0915 2.5869 3.1895 3.8457 3.2e-4 4e-4 -3.3e-4 0 0 0 0.54883 0.6292 1.1079 1.2517 1.6738 1.8691 3.3e-4 4e-4 -3.3e-4 0 0 0 1.1322 1.2351 2.2991 2.4447 3.498 3.6308 0.59997 0.5936 1.208 1.1809 1.8242 1.7617 2.4635 2.3223 5.056 4.5426 7.7676 6.6524 2.7116 2.1098 5.5416 4.1091 8.4824 5.9902 2.2056 1.4109 4.4737 2.755 6.7988 4.0293 1.5494 0.8491 3.1251 1.6672 4.7246 2.4531 7.8e-4 4e-4 1e-3 0 2e-3 0 1.5995 0.7859 3.2238 1.5391 4.8711 2.2598 7.9e-4 3e-4 1e-3 0 2e-3 0 1.6474 0.7207 3.3189 1.4071 5.0117 2.0606 8e-4 3e-4 1e-3 0 2e-3 0 0.84602 0.3266 1.6978 0.6438 2.5547 0.9531 7.9e-4 3e-4 1e-3 0 2e-3 0 1.7154 0.6193 3.4516 1.2029 5.209 1.7519 3.5147 1.098 7.1111 2.0529 10.779 2.8575 2.7512 0.6034 5.5429 1.1223 8.3711 1.5527 1.8854 0.2869 3.7864 0.5347 5.7031 0.7422 1.8491 0.2001 3.7138 0.36 5.5898 0.4844 0.068 0 0.13513 0.011 0.20313 0.016 6.5e-4 0 1e-3 -1e-4 2e-3 0 2.9178 0.1889 5.8676 0.2851 8.8438 0.2851h26.502c-0.62238 0.6355-1.2274 1.3354-1.8144 2.0938-3.1e-4 4e-4 3.1e-4 0 0 0-0.58667 0.7581-1.1562 1.5734-1.707 2.4395-3e-4 5e-4 2.9e-4 0 0 0-0.82641 1.2995-1.6129 2.7118-2.3574 4.2129-2.6e-4 6e-4 2.6e-4 0 0 0-2.2339 4.5046-4.0967 9.8056-5.5645 15.228-0.32617 1.2052-0.63288 2.4151-0.91992 3.625-1.4e-4 6e-4 1.5e-4 0 0 0-0.052 0.2193-0.0938 0.437-0.14453 0.6562-0.50909 2.1992-0.96264 4.3902-1.3398 6.5274-0.20738 1.175-0.39371 2.3332-0.56055 3.4687-0.16698 1.1362-0.31352 2.2483-0.43945 3.3301-0.25172 2.1623-0.42099 4.2004-0.50586 6.0566-0.0424 0.9281-0.0644 1.8112-0.0644 2.6406 1e-5 0.9746 0.029 1.9502 0.0859 2.9278 0.17096 2.9327 0.5951 5.874 1.2539 8.7949 0.43921 1.9473 0.98278 3.8862 1.625 5.8066 0.32109 0.9603 0.66733 1.915 1.0371 2.8653 2.2e-4 6e-4 -2.2e-4 0 0 0 1.1092 2.8504 2.4347 5.651 3.957 8.3731 1.5229 2.723 3.2416 5.366 5.1406 7.9023 1.2658 1.6906 2.6122 3.3339 4.0312 4.9199 3.5476 3.9652 7.5566 7.5764 11.941 10.699 0.87695 0.6245 1.7675 1.23 2.6738 1.8144 5.4383 3.5068 11.392 6.2703 17.713 8.0586 5.267 1.4902 10.789 2.3027 16.479 2.3027 5.69 1e-4 11.212-0.8126 16.479-2.3027 1.0534-0.298 2.0966-0.6235 3.1289-0.9746 2.0641-0.7021 4.085-1.5086 6.0566-2.4102 0.98608-0.4509 1.961-0.9262 2.9219-1.4238 1.9212-0.9949 3.7913-2.0816 5.6035-3.25 4.5e-4 -3e-4 2e-3 3e-4 2e-3 0 2.719-1.7531 5.3076-3.6918 7.75-5.7871 1.6283-1.3968 3.1901-2.8633 4.6816-4.3906 2.2377-2.2913 4.316-4.7176 6.2148-7.2539 3.1e-4 -4e-4 -3.2e-4 0 0 0 0.63255-0.8449 1.2457-1.7006 1.8379-2.5683 3e-4 -5e-4 -3.1e-4 0 0 0 0.59217-0.8677 1.1644-1.7463 1.7148-2.6348 3e-4 -4e-4 -3e-4 0 0 0 1.1014-1.7779 2.1189-3.5935 3.0449-5.4414 0.46328-0.9245 0.90301-1.8562 1.3203-2.7949 0.41709-0.9382 0.8099-1.8818 1.1797-2.8321s0.71601-1.9069 1.0371-2.8672c0.64202-1.9199 1.1859-3.8579 1.625-5.8046 1.4e-4 -7e-4 -1.4e-4 0 0 0 0.2196-0.9737 0.4133-1.9486 0.58008-2.9258 0.33355-1.9542 0.55986-3.9139 0.67383-5.8691 0.057-0.9776 0.0859-1.9532 0.0859-2.9278 2e-5 -1.6588-0.0853-3.5307-0.25391-5.5546-0.15885-1.9065-0.39786-3.9554-0.70313-6.084-0.18087-1.2613-0.38187-2.5458-0.61328-3.8574-1.4513-8.2255-3.8886-17.24-7.2344-24.51-0.47796-1.0386-0.97548-2.042-1.4902-3.002-0.25738-0.4799-0.51866-0.9487-0.78515-1.4062-1.066-1.8303-2.2047-3.4735-3.4141-4.8711-0.30234-0.3494-0.60875-0.6842-0.91992-1.002h308.19c0.4559 0.7437 0.8808 1.5471 1.2754 2.4024 0.1973 0.4276 0.3862 0.8678 0.5684 1.3203 3e-4 8e-4 0 0 0 0 0.364 0.9043 0.6976 1.8561 1.002 2.8476 2e-4 6e-4 -2e-4 0 0 0 0.1521 0.4956 0.2981 1.0012 0.4355 1.5156 2e-4 6e-4 -1e-4 0 0 0 0.1374 0.5144 0.2678 1.0373 0.3906 1.5684 0.022 0.094 0.039 0.1923 0.061 0.2871 0.3051 1.3549 0.5566 2.7639 0.7695 4.2012 0.024 0.1632 0.059 0.3183 0.082 0.4824 0 6e-4 -1e-4 0 0 0 0.4794 3.4188 0.7048 7.0118 0.6894 10.56v0c-0.015 3.5487-0.2721 7.0533-0.7539 10.295-1e-4 6e-4 1e-4 0 0 0-0.1606 1.0801-0.3464 2.131-0.5566 3.1446-2e-4 6e-4 1e-4 0 0 0-0.1051 0.5064-0.2167 1.0034-0.334 1.4902-2e-4 7e-4 1e-4 0 0 0-0.3522 1.4616-0.7589 2.8299-1.2188 4.0781-3e-4 8e-4 0 0 0 0-0.1531 0.4154-0.3119 0.8193-0.4766 1.207-0.4952 1.1655-1.0424 2.2009-1.6406 3.0801-0.2541 0.357-0.582 0.7894-0.9746 1.293-7e-4 8e-4 0 0 0 0-0.3922 0.5031-0.8475 1.0769-1.3574 1.7149-6e-4 8e-4 0 0 0 0-1.3092 1.638-2.9923 3.7387-4.8359 6.1328-0.3128 0.4063-0.6112 0.7842-0.9336 1.209-3e-4 4e-4 3e-4 0 0 0-0.7405 0.9759-1.5051 1.9987-2.2812 3.0644-4e-4 4e-4 3e-4 0 0 0-0.3222 0.4424-0.6528 0.9204-0.9786 1.3769-2.0295 2.8436-4.1085 5.9244-6.0722 9.2012-1.8992 3.169-3.6849 6.4946-5.1953 9.8887-0.9063 2.0364-1.7131 4.0975-2.3868 6.164-0.6736 2.0665-1.2143 4.1371-1.5859 6.1953-0.1239 0.6861-0.2293 1.3705-0.3144 2.0528-0.1705 1.3653-0.2598 2.7207-0.2598 4.0625 0 1.9994 0.1134 3.9902 0.3359 5.9668 0.2226 1.9765 0.5541 3.9388 0.9883 5.8789 0.2171 0.97 0.4606 1.9342 0.7285 2.8926 0.536 1.9167 1.1712 3.8081 1.9024 5.6679s1.5571 3.6873 2.4726 5.4766c0.9156 1.7893 1.9209 3.5409 3.0098 5.2461 1.0889 1.7051 2.2622 3.3652 3.5137 4.9726 2.5028 3.2148 5.319 6.2208 8.4062 8.9629 0.7718 0.6856 1.5603 1.3541 2.3653 2.0059 4.8298 3.9109 10.244 7.196 16.094 9.6758 0.9749 0.4132 1.9605 0.8043 2.959 1.1718 1.9975 0.7354 4.0395 1.3777 6.123 1.92 2.083 0.5421 4.2072 0.9848 6.3653 1.3203 3.2371 0.5032 6.5523 0.7656 9.9277 0.7656 1.1435 0 2.2811-0.026 3.4102-0.078 1.1296-0.052 2.2534-0.1283 3.3671-0.2305 6.6828-0.613 13.066-2.1232 18.994-4.3926 2.8979-1.1092 5.6871-2.464 8.3496-4.0293 0.6657-0.3914 1.325-0.7954 1.9746-1.2129 1.9488-1.2523 3.8237-2.6191 5.6172-4.0879 1.1956-0.9791 2.3556-2.0048 3.4766-3.0703 1.1209-1.0654 2.2024-2.1706 3.2441-3.3144 3e-4 -4e-4 -3e-4 0 0 0 0.5208-0.5719 1.0311-1.1521 1.5312-1.7422 0.5005-0.5904 0.9895-1.1893 1.4688-1.7968 0.4786-0.6068 0.9474-1.221 1.4043-1.8438 3e-4 -4e-4 -3e-4 0 0 0 0.4568-0.6229 0.9034-1.2527 1.3379-1.8907 3e-4 -4e-4 -3e-4 0 0 0 0.4348-0.6384 0.8596-1.2831 1.2715-1.9356 0.4121-0.653 0.8106-1.3123 1.1992-1.9785 0.3881-0.6651 0.7648-1.3364 1.1289-2.0137 3e-4 -5e-4 -3e-4 0 0 0 0.3643-0.6778 0.7169-1.3599 1.0566-2.0488 0.6797-1.3785 1.3091-2.7781 1.8867-4.1953 0.2888-0.7084 0.5638-1.4203 0.8262-2.1368 0.525-1.4336 0.9978-2.8814 1.4141-4.3418 0.208-0.7299 0.402-1.4621 0.582-2.1972 0.3602-1.4709 0.6636-2.9498 0.9082-4.4356 0.1223-0.7425 0.2297-1.4856 0.3223-2.2304 0.2777-2.2344 0.4199-4.4763 0.4199-6.7129 0-5.4952-1.015-11.241-2.7109-16.852-0.1884-0.6234-0.3851-1.2438-0.5899-1.8633-0.4097-1.2395-0.8507-2.4698-1.3203-3.6875-0.4693-1.2171-0.9664-2.4205-1.4883-3.6074-1.5657-3.5611-3.3499-6.9658-5.2558-10.102-0.6352-1.0451-1.2851-2.0601-1.9434-3.041s-1.3259-1.9277-2-2.8359c-2.0221-2.7248-4.0974-5.1033-6.1289-7.0215-0.6772-0.6394-1.3502-1.2269-2.0137-1.7598-1.7352-1.6509-3.1498-3.4799-4.2832-5.4414-0.2833-0.4902-0.5502-0.9881-0.7988-1.4941-0.7457-1.518-1.3375-3.1026-1.791-4.7363-0.3024-1.0892-0.5427-2.2001-0.7266-3.3262s-0.3101-2.2685-0.3847-3.4199c-0.112-1.7273-0.1063-3.4769 0-5.2285 0.072-1.1678 0.189-2.336 0.3477-3.5 0.2379-1.7462 0.5678-3.4823 0.9746-5.1875 0.2712-1.1369 0.5773-2.2592 0.9121-3.3633 0.6695-2.2084 1.457-4.3397 2.3262-6.3477 1.3037-3.0119 2.7905-5.747 4.3379-8.0469h45.158c2.9768 0 5.9272-0.096 8.8457-0.2851 1.9456-0.126 3.8762-0.2926 5.7929-0.5 1.9168-0.2075 3.8196-0.4553 5.7051-0.7422 2.8282-0.4304 5.6199-0.9493 8.3711-1.5527 3.6682-0.8046 7.2645-1.7595 10.779-2.8575 5.2722-1.6469 10.361-3.6152 15.234-5.8769 2.4368-1.1309 4.8193-2.3351 7.1445-3.6094s4.5932-2.6184 6.7988-4.0293c2.9404-1.8808 5.7711-3.8808 8.4824-5.9902 2.7118-2.1098 5.3059-4.3301 7.7696-6.6524 0.6162-0.5808 1.2223-1.1681 1.8222-1.7617 6.5964-6.5252 12.201-13.806 16.617-21.678 0.803-1.4312 1.5659-2.8825 2.2891-4.3516 2.1692-4.4067 3.9758-8.9799 5.3848-13.691 1e-4 -6e-4 -2e-4 0 0 0 1.6437-5.4969 2.7489-11.183 3.2636-17.014 1e-4 -7e-4 0 0 0 0 0.2206-2.4993 0.3322-5.0249 0.3321-7.5742l-0.01-155.51-0.037-415.95c-1.8883-169.25-188.82-322.18-389.09-327.21-3.1379-0.079-6.2766-0.12078-9.4141-0.12305z" fill="#f0f" stop-color="#000000" style="font-variation-settings:normal"/>
     <path transform="matrix(.26458 0 0 .26458 80.392 -141.86)" d="m887.1 248.73c-0.50266 9.4e-4 -1.0051 0.0231-1.5059 0.0664-102.88 0.31606-204.12 39.487-280.5 102.99-76.745 63.816-128.78 153.03-128.78 252.33 0 4.6364 0.12548 9.2728 0.33203 13.9v500.16l35.736-3.0664v-497.09c-5.5e-4 -0.28073-8e-3 -0.5614-0.0215-0.84179-0.20602-4.3526-0.31054-8.7082-0.31054-13.059 7e-5 -86.804 45.599-166.4 115.89-224.85 70.29-58.448 164.87-94.858 259.13-94.799 2.9882 2e-3 5.9806 0.0418 8.9766 0.11719 95.728 2.4064 189.03 40.444 257.95 97.893 59.227 49.373 99.576 112.57 110.36 178.96l3.4004 488.88 35.738-3.0664-2.9453-488.92c-11.768-77.583-58.419-148.9-123.68-203.3-75.092-62.598-175.39-103.54-279.92-106.17-3.2798-0.0826-6.5688-0.13048-9.8555-0.13281zm-10.782 178.65c-10.873-2e-3 -19.687 5.8856-19.684 13.148v699.46c2e-3 7.2594 8.8149 13.143 19.684 13.141 10.865 0 19.672-5.8841 19.674-13.141v-699.46c4e-3 -7.2595-8.805-13.146-19.674-13.148zm222.13-15.072c-0.8684-4e-3 -1.7362 0.0363-2.5977 0.1211-10.782 1.0504-18.427 8.6899-17.076 17.064 0 0 1.1779 7.3999 3.9317 15.992 2.6111 8.1472 4.6032 17.529 15.598 26.199 0.1421 0.1878 0.2902 0.40679 0.4082 0.68164 0.6367 1.4821 1.4292 4.0953 1.9356 7.1797 1.0127 6.1688 0.8964 14.314-1.2246 21.492-2.121 7.1785-6.0362 13.11-11.531 16.922-5.4952 3.812-12.867 6.5479-27.467 6.0449-20.396-0.70265-28.31-4.8629-32.527-9.0156-4.2172-4.1527-6.0989-10.692-5.2442-19.398 1.7096-17.413 14.657-38.343 17.893-43.432 7.5048-11.804 7.8047-22.779 7.8047-22.779 0.1168-8.4393-8.5955-15.355-19.461-15.447-10.866-0.091-19.769 6.6759-19.889 15.115 0 0 0.088 3.5467-3.7461 9.5762-2.4337 3.8278-19.253 28.177-21.852 54.646-1.2994 13.235 1.0324 28.283 13.592 40.65 12.559 12.367 33.983 19.663 61.687 20.617 22.706 0.78221 42.1-4.5364 55.422-13.777 13.321-9.241 20.268-21.364 23.672-32.883 3.4037-11.519 3.4647-22.721 1.9082-32.201-0.7782-4.7403-1.9419-9.034-3.6387-12.984-1.6968-3.9503-2.8427-7.5209-9.2246-12.084 1.7347 1.2403-3.8154-5.9208-5.9258-12.506-2.1105-6.585-3.0742-12.402-3.0742-12.402-1.2208-7.6056-9.5054-13.333-19.373-13.393zm-453.2 39.533c-10.069 0.11064-18.405 6.1074-19.318 13.896 0 0-0.24254 1.993-0.61328 4.3086-0.32844 2.0501-0.94239 4.1757-0.75976 3.9062-0.49947 0.76645-1.1794 1.81-2.043 3.1602-1.8592 2.9069-4.3635 6.9438-6.9961 11.758-5.2652 9.628-11.171 22.319-13.602 36.238-2.4308 13.919-1.4985 29.86 10.303 43.695 11.801 13.835 33.73 22.979 63.129 25.234 29.906 2.2938 54.491-5.0516 67.75-18.863 13.259-13.812 15.223-30.474 14.205-45.721-2.0368-30.494-17.797-59.453-17.797-59.453-4.1068-7.8117-15.587-11.561-25.646-8.375-10.064 3.1902-14.891 12.114-10.781 19.93 0 0 13.39 26.49 14.926 49.484 0.76797 11.497-1.8769 21.086-6.4609 25.861-4.5841 4.7752-11.074 8.3485-32.322 6.7188-21.754-1.6685-29.82-6.574-34.191-11.699-4.372-5.1253-5.7919-13.052-4.1055-22.709 1.6864-9.6567 6.3659-20.243 10.818-28.385 2.2263-4.0709 4.3683-7.5388 6.0137-10.111 0.82269-1.2864 1.5116-2.3437 2.082-3.2207 0.57037-0.877 0.32775 0.65377 2.1504-3.8242 1.788-4.3938 1.921-6.9657 2.3828-9.8476 0.46182-2.8819 0.75-5.3125 0.75-5.3125 0.98731-8.4078-6.9893-15.845-17.814-16.609-0.55334-0.0384-1.1085-0.0586-1.6641-0.0605-0.13151-1e-3 -0.26302-1e-3 -0.39453 0zm452.58 19.357c0.01-0.0253 0.206 0.14831 0.4316 0.43554-0.3088-0.26931-0.4371-0.41568-0.4316-0.43554zm205.67 576.05-35.738 3.0664 0.01 115.12c0 43.187-41.476 80.309-96.77 80.309h-45.154c-5.9459 3e-4 -11.502 2.9581-14.822 7.8906-5.9959 8.9121-10.434 20.063-11.715 32.893-1.2809 12.83 1.3359 28.722 13.309 40.113 0.3604 0.3456 0.7351 0.676 1.1231 0.9903 2.0109 1.615 7.2714 7.9276 10.881 15.236 3.6095 7.3088 5.8907 15.744 5.8907 21.6-1e-4 15.753-12.401 34.592-27.941 40.541-5.8684 2.2464-12.405 3.5216-19.377 3.5215-26.102-2e-4 -47.326-22.939-47.326-44.062 2e-4 -4.3142 3.7368-13.96 9.1836-22.359 5.4469-8.3992 10.569-13.863 14.684-19.644 0.072-0.1027 0.143-0.2063 0.2129-0.3105 7.5613-11.113 8.0253-21.652 8.0762-33.27 0.051-11.618-0.9669-23.295-7.9063-34.613-3.2488-5.2961-9.0154-8.5244-15.228-8.5253h-308.2c-15.826 0-23.835 19.061-12.764 30.369 0.62067 0.6339 4.7578 8.0007 6.9609 16.143 2.2032 8.1419 3.3516 17.451 3.3516 21.637-4.2e-4 19.911-22.54 46.602-48.07 46.602-25.529-5e-4 -48.072-26.691-48.072-46.602 7e-5 -4.1862 1.1559-13.495 3.3594-21.637 2.2035-8.1419 6.3402-15.509 6.9609-16.143 11.074-11.311 3.0584-30.372-12.771-30.369h-26.5c-55.293 0-96.762-37.12-96.762-80.309v-50.336l-35.736 3.0664v47.27c0 65.07 59.868 115.11 130.85 115.9-0.14815 0.5351-0.39408 1.0501-0.53906 1.5859-3.0153 11.141-4.5916 21.89-4.5918 30.975 8.4e-4 42.46 36.5 82.337 83.801 82.338 47.302 6e-4 83.804-39.877 83.805-82.338 1.5e-4 -9.0847-1.5751-19.833-4.5898-30.975-0.13206-0.4879-0.35366-0.9575-0.48828-1.4453h266.18c0.5589 2.8378 1.2335 3.8876 1.2188 7.248-0.03 6.8162-2.6669 13.992-2.0684 13.529-0.6281 0.734-8.336 9.8981-15.154 20.412-7.1264 10.989-14.939 24.661-14.939 41.805 3e-4 42.858 37.146 79.791 83.053 79.791 11.335 2e-4 22.221-2.0794 32.162-5.8847 30.834-11.803 50.898-41.944 50.898-73.906 1e-4 -13.681-4.1256-26.365-9.5879-37.426-5.2575-10.647-11.457-19.653-19.588-26.476-1.7911-1.8313-2.7683-4.8262-2.2032-10.486 0.2737-2.7408 1.1317-5.784 2.1328-8.6054h34c71.718 0 132.51-50.453 132.51-116.04zm-201.43-448.45c-10.868 1e-3 -19.677 5.1475-19.674 11.494v546.74c0 6.3443 8.8093 11.487 19.674 11.488 10.868 0 19.681-5.1418 19.684-11.488v-546.74c0-6.3488-8.8113-11.496-19.684-11.494zm-435.11 59.906c-10.87-2e-3 -19.683 5.1429-19.684 11.49v481.31c2e-3 6.3465 8.8152 11.49 19.684 11.488 10.865 0 19.672-5.144 19.674-11.488v-481.31c-5.2e-4 -6.345-8.808-11.489-19.674-11.49z" color="#000000" color-rendering="auto" dominant-baseline="auto" fill="#cd00cd" image-rendering="auto" shape-rendering="auto" solid-color="#000000" stop-color="#000000" style="font-feature-settings:normal;font-variant-alternates:normal;font-variant-caps:normal;font-variant-east-asian:normal;font-variant-ligatures:normal;font-variant-numeric:normal;font-variant-position:normal;font-variation-settings:normal;inline-size:0;isolation:auto;mix-blend-mode:normal;shape-margin:0;shape-padding:0;text-decoration-color:#000000;text-decoration-line:none;text-decoration-style:solid;text-indent:0;text-orientation:mixed;text-transform:none;white-space:normal"/>
    </g>
   </g>
  </g>
  <rect x="-265.14" y="22.686" width="118.62" height="103.83" rx="17.183" ry="17.183" fill="url(#radialGradient959-5-8-5)"/>
  <g shape-rendering="auto">
   <path d="m-265.72 66.51h117.98v33.074h-117.98z" color="#000000" color-rendering="auto" dominant-baseline="auto" fill="#fdf" image-rendering="auto" solid-color="#000000" stop-color="#000000" style="font-feature-settings:normal;font-variant-alternates:normal;font-variant-caps:normal;font-variant-east-asian:normal;font-variant-ligatures:normal;font-variant-numeric:normal;font-variant-position:normal;font-variation-settings:normal;inline-size:0;isolation:auto;mix-blend-mode:normal;shape-margin:0;shape-padding:0;text-decoration-color:#000000;text-decoration-line:none;text-decoration-style:solid;text-indent:0;text-orientation:mixed;text-transform:none;white-space:normal"/>
   <path d="m-265.72 65.646a0.86279 0.86279 0 0 0-0.86328 0.86328v33.074a0.86279 0.86279 0 0 0 0.86328 0.86329h117.98a0.86279 0.86279 0 0 0 0.86328-0.86329v-33.074a0.86279 0.86279 0 0 0-0.86328-0.86328h-117.98zm0.86328 1.7266h116.26v31.348h-116.26v-31.348z" color="#000000" color-rendering="auto" dominant-baseline="auto" fill="#d3b6e4" image-rendering="auto" solid-color="#000000" stop-color="#000000" style="font-feature-settings:normal;font-variant-alternates:normal;font-variant-caps:normal;font-variant-east-asian:normal;font-variant-ligatures:normal;font-variant-numeric:normal;font-variant-position:normal;font-variation-settings:normal;inline-size:0;isolation:auto;mix-blend-mode:normal;shape-margin:0;shape-padding:0;text-decoration-color:#000000;text-decoration-line:none;text-decoration-style:solid;text-indent:0;text-orientation:mixed;text-transform:none;white-space:normal"/>
  </g>
  <path d="m-261.6 31.445s53.452-1.0671 74.031 20.132c20.579 21.199 17.893 74.76 17.893 74.76l15.254-0.96784 7.7169-10.271-0.52521-81.444-6.4155-10.181-66.244-1.9867-33.718 2.6711z" fill="#fff" fill-opacity=".46843" stroke="#fdfdfd" stroke-opacity=".40326" stroke-width="1.101"/>
  <g transform="matrix(1.9751 0 0 1.9751 -328.21 -203.42)" fill="#850085" style="shape-inside:url(#rect1013-0-2-6-0-3);white-space:pre" aria-label="POOLS">
   <path d="m37.62 139.99h4.9555q1.6189 0 2.4218 0.76998 0.80946 0.76997 0.80946 2.1915 0 1.461-0.88186 2.2836-0.87527 0.82263-2.6785 0.82263h-1.6321v3.5801h-2.9944zm2.9944 4.1131h0.73049q0.86211 0 1.2109-0.29615 0.34879-0.30273 0.34879-0.76998 0-0.45409-0.30273-0.76997-0.30273-0.31589-1.1385-0.31589h-0.84895z"/>
   <path d="m46.992 144.82q0-2.3626 1.3162-3.6788 1.3162-1.3162 3.6656-1.3162 2.4086 0 3.7117 1.2965 1.303 1.2899 1.303 3.6196 0 1.6913-0.57255 2.7772-0.56597 1.0793-1.6453 1.6847-1.0727 0.59887-2.6785 0.59887-1.6321 0-2.7048-0.5199-1.0661-0.5199-1.7308-1.6452-0.66468-1.1254-0.66468-2.8167zm2.9812 0.0132q0 1.461 0.53964 2.0993 0.54622 0.63836 1.4807 0.63836 0.96083 0 1.4873-0.6252 0.52648-0.62519 0.52648-2.2441 0-1.3623-0.5528-1.9875-0.54622-0.63177-1.4873-0.63177-0.9016 0-1.4478 0.63836-0.54622 0.63835-0.54622 2.1125z"/>
   <path d="m58.219 144.82q0-2.3626 1.3162-3.6788 1.3162-1.3162 3.6656-1.3162 2.4086 0 3.7117 1.2965 1.303 1.2899 1.303 3.6196 0 1.6913-0.57255 2.7772-0.56597 1.0793-1.6453 1.6847-1.0727 0.59887-2.6785 0.59887-1.6321 0-2.7048-0.5199-1.0661-0.5199-1.7308-1.6452-0.66468-1.1254-0.66468-2.8167zm2.9812 0.0132q0 1.461 0.53964 2.0993 0.54622 0.63836 1.4807 0.63836 0.96083 0 1.4873-0.6252 0.52648-0.62519 0.52648-2.2441 0-1.3623-0.5528-1.9875-0.54622-0.63177-1.4873-0.63177-0.9016 0-1.4478 0.63836-0.54622 0.63835-0.54622 2.1125z"/>
   <path d="m69.821 139.99h2.9812v7.272h4.6528v2.3757h-7.634z"/>
   <path d="m78.291 146.44 2.8364-0.17768q0.09213 0.691 0.37512 1.053 0.46067 0.58571 1.3162 0.58571 0.63836 0 0.98057-0.29615 0.34879-0.30272 0.34879-0.69758 0-0.37512-0.32905-0.67127-0.32905-0.29614-1.5268-0.55938-1.9611-0.44093-2.7969-1.1714-0.84237-0.73049-0.84237-1.8624 0-0.74365 0.42777-1.4018 0.43435-0.66468 1.2965-1.0398 0.86869-0.3817 2.3757-0.3817 1.8493 0 2.8167 0.69101 0.97399 0.68442 1.1583 2.1849l-2.8101 0.16453q-0.11188-0.65152-0.47383-0.94767-0.35537-0.29614-0.98715-0.29614-0.5199 0-0.78314 0.22375-0.26324 0.21717-0.26324 0.53306 0 0.23034 0.21717 0.41461 0.21059 0.19085 1.0003 0.35537 1.9546 0.42119 2.7969 0.85553 0.84895 0.42777 1.2306 1.0661 0.38828 0.63836 0.38828 1.4281 0 0.92792-0.51332 1.7111t-1.4347 1.1912q-0.92134 0.40144-2.3231 0.40144-2.4613 0-3.409-0.94767-0.94766-0.94766-1.0727-2.4086z"/>
  </g>
  <rect x="-265.14" y="22.686" width="118.62" height="103.83" rx="17.183" ry="17.183" fill="none" stroke="#850085" stroke-width="5.9262"/>
  <rect x="-265.14" y="22.686" width="118.62" height="103.83" rx="17.183" ry="17.183" fill="none" stroke="#850085" stroke-width="5.9262"/>
 </g>
</svg>
